<svg width="49" height="50" viewBox="0 0 49 50" fill="none" xmlns="http://www.w3.org/2000/svg">
<path d="M49 19.5236C47.6328 20.4533 46.8125 21.7111 46.6484 23.4064C46.4844 25.1017 46.0469 26.7423 45.7187 28.4376C45.3359 30.7345 44.4062 31.3361 42.1641 30.9533C35.8203 29.7501 29.5312 28.6017 23.1875 27.4533C21.6016 27.1798 21.0547 27.7814 21.7109 29.2033C22.6406 31.2267 22.5859 32.8126 20.5625 34.0158C20.0156 34.3439 20.125 34.8908 20.0703 35.3283C19.6328 37.7345 18.4297 38.7736 16.0234 38.7736C12.8516 38.7736 9.62499 38.8283 6.45312 38.7736C5.30468 38.7736 4.86718 39.1017 4.97655 40.2501C5.03124 40.9611 4.97655 41.672 4.81249 42.3829C4.48437 43.8595 2.1328 44.7345 0.874992 43.9689C0.27343 43.5861 0.437492 42.9845 0.437492 42.4923C0.437492 39.2658 0.382805 35.9845 0.437492 32.7579C0.437492 31.9923 -0.109383 30.7892 1.2578 30.6251C2.46093 30.4611 3.8828 30.3517 4.48437 31.6642C4.92187 32.7579 5.57812 32.8126 6.56249 32.8126C9.46093 32.7579 12.4141 32.8126 15.3125 32.8126C16.0781 32.8126 16.7891 32.8673 16.4062 31.7189C16.1328 30.9533 16.5703 30.2423 16.8984 29.5314C17.6094 27.8361 17.2266 26.6876 15.5859 26.0314C15.3125 25.922 14.9297 25.7579 14.9297 25.5939C14.6562 23.1876 11.8125 21.6017 12.7422 18.7579C13.2344 17.3908 13.2891 15.8595 13.5625 14.3829C13.8906 12.797 14.8203 12.0861 16.4062 12.3595C27.0156 14.3283 37.5703 16.297 48.1797 18.2658C48.4531 18.3204 48.6719 18.4845 48.9453 18.5392C49 18.8673 49 19.1954 49 19.5236Z" fill="#57ABA2"/>
<path d="M7.27341 13.7267C7.43748 9.89856 11.1015 6.28918 14.8203 6.23449C15.3125 6.23449 16.0781 6.01574 16.1328 6.78137C16.2422 7.54699 15.5312 7.4923 14.9844 7.60168C11.375 8.09387 9.0781 10.3361 8.6406 13.8907C8.58591 14.4376 8.6406 15.1486 7.87498 15.0939C6.99998 15.0392 7.3281 14.2189 7.27341 13.7267Z" fill="#59ADA4"/>
<path d="M10.2813 14.0001C10.336 11.758 12.7969 9.29701 15.0391 9.29701C15.5313 9.29701 16.1328 9.24233 16.1875 9.89858C16.2422 10.4455 15.8047 10.6095 15.3125 10.6642C13.2344 10.9376 12.086 12.1408 11.7031 14.1642C11.5938 14.6564 11.5938 15.258 10.8828 15.1486C10.2266 15.0939 10.2813 14.4923 10.2813 14.0001Z" fill="#5AADA4"/>
<path d="M45.0625 23.8986C44.7344 25.758 44.5156 27.2346 44.1875 28.6565C44.0235 29.5315 43.5313 29.8049 42.6016 29.5861C33.961 27.9455 25.3203 26.3596 16.6797 24.7736C16.0235 24.6643 15.4766 24.4455 15.586 23.6252C15.6953 22.6955 16.4063 23.133 16.8438 23.1877C17.336 23.1877 17.9375 23.2424 17.9922 22.5861C18.0469 21.9299 17.4453 21.8752 16.9531 21.7658C13.6719 20.8908 13.6719 20.8908 14.3281 17.5549C15.0938 13.7268 15.1485 13.6174 18.9219 14.2736C27.7813 15.8596 36.6406 17.5549 45.5 19.1955C46.375 19.3596 46.7031 19.5783 45.9922 20.3986C44.5156 22.0393 43.0938 23.7346 41.6719 25.3752C41.125 26.0315 40.4688 26.1408 39.5938 25.9768C33.6875 24.8283 27.7266 23.7346 21.7656 22.6408C21.4375 22.5861 21.1094 22.5315 20.7813 22.5315C20.3438 22.4768 19.8516 22.4221 19.7422 22.969C19.6328 23.6252 20.0703 23.7893 20.6172 23.8986C23.3516 24.3908 26.1406 24.9377 28.875 25.4846C32.0469 26.0861 35.2735 26.5236 38.4453 27.2893C40.6875 27.8361 42.3281 27.344 43.586 25.4846C43.9688 24.9377 44.4063 24.6096 45.0625 23.8986Z" fill="#FEFEFE"/>
<path d="M11.7031 34.1797C13.5078 34.1797 15.3125 34.1797 17.1172 34.1797C17.5547 34.1797 18.2109 33.9609 18.4297 34.5078C18.7031 35.0547 18.5391 35.7109 18.2109 36.2578C17.7187 37.0234 17.0625 37.4062 16.1328 37.4062C12.7422 37.4062 9.29687 37.3516 5.90625 37.4062C4.64843 37.4062 4.75781 36.6953 4.8125 35.9297C4.86718 35.1641 4.48437 34.1797 5.85156 34.2344C7.875 34.2344 9.78906 34.1797 11.7031 34.1797Z" fill="#FCFDFD"/>
<path d="M1.69528 37.3516C1.69528 35.9297 1.69528 34.5078 1.69528 33.0859C1.69528 32.5938 1.69528 32.0469 2.40622 32.0469C3.11716 32.0469 3.33591 32.4844 3.33591 33.0859C3.33591 35.9297 3.33591 38.7734 3.33591 41.6719C3.33591 42.3281 3.00778 42.7109 2.35153 42.7109C1.58591 42.7109 1.69528 42.1094 1.69528 41.6172C1.69528 40.1953 1.69528 38.7734 1.69528 37.3516Z" fill="#F9FCFB"/>
<path d="M20.8906 31.3359C20.7813 32.2656 20.2344 32.8125 19.25 32.7578C18.375 32.7031 17.8281 32.2109 17.8281 31.2813C17.8281 30.2969 18.375 29.75 19.3047 29.6953C20.3438 29.75 20.8359 30.3516 20.8906 31.3359Z" fill="#FBFDFD"/>
<path d="M20.1797 27.5079C20.2344 28.1095 20.0703 28.3282 19.4687 28.3282C18.8125 28.3282 18.4297 28.2189 18.539 27.4532C18.5937 27.0704 18.375 26.5236 19.1406 26.6876C19.6328 26.8517 20.3437 26.7423 20.1797 27.5079Z" fill="#EAF4F3"/>
</svg>
