<svg width="44" height="34" viewBox="0 0 44 34" fill="none" xmlns="http://www.w3.org/2000/svg">
<g clip-path="url(#clip0_1_480)">
<path d="M16.7486 30.9964C13.8444 34.0399 10.7414 34.921 8.15547 32.7985C6.4448 31.3968 5.49 31.2767 4.05782 32.8786C3.38151 33.6395 2.2278 33.7596 1.19344 33.8397C0.596695 33.9198 0.0397325 33.7196 -5.05119e-05 32.9587C-0.0398335 32.3179 0.39778 32.0776 0.954742 32.0376C2.70519 31.8774 3.97825 30.9163 4.97283 29.4746C5.88783 28.153 6.24588 28.153 7.20067 29.3945C9.78657 32.9186 13.1681 32.9186 15.6745 29.3144C16.4303 28.2331 16.9475 28.1931 17.7034 29.2743C20.3688 32.9587 23.6311 32.9587 26.2965 29.3544C27.1717 28.153 27.49 28.153 28.405 29.4345C30.9511 32.9587 34.3725 32.9587 36.9186 29.3544C37.6745 28.3132 38.2314 28.113 38.9475 29.2743C39.9421 30.8362 41.2549 31.8774 43.1247 32.0376C43.7613 32.0776 44.0397 32.4381 43.9602 33.0388C43.9204 33.7196 43.4032 33.8797 42.886 33.8397C41.1754 33.6795 39.7034 33.0388 38.6292 31.7172C38.0723 31.0364 37.7938 31.1165 37.2368 31.7172C34.6112 34.5605 30.7124 34.5606 28.047 31.7573C27.6491 31.3568 27.49 30.8362 26.7739 31.517C23.3128 34.8809 19.971 34.6807 16.7486 30.9964Z" fill="#57ACA3"/>
<path d="M37.9927 2.48286C36.2423 4.76555 34.0542 5.76673 31.2296 5.16602C29.8372 4.88569 28.7631 4.1248 27.9276 3.08357C27.49 2.52291 27.2911 2.60301 26.8137 3.08357C23.8697 6.12715 20.2495 6.12715 17.3056 3.08357C17.0669 2.80324 16.9873 2.40277 16.3905 2.84329C12.0542 6.32739 9.94569 6.24729 6.08674 2.52291C4.89325 4.1248 3.3815 5.12597 1.35257 5.32621C0.755822 5.36626 0.159077 5.32621 0.0397283 4.60536C-0.0796207 3.88451 0.397775 3.64423 1.0343 3.56414C2.82454 3.3639 4.17716 2.36272 5.09217 0.840933C5.80826 -0.280387 6.36523 -0.24034 7.1211 0.840933C9.74678 4.52527 13.0886 4.52527 15.6744 0.88098C16.4303 -0.200292 16.9475 -0.24034 17.7034 0.840933C20.4086 4.56531 23.631 4.52527 26.3363 0.760838C27.0922 -0.320434 27.6093 -0.120198 28.2857 0.840933C30.9511 4.60536 34.2133 4.56531 36.9186 0.800885C37.6744 -0.240339 38.2314 -0.160245 38.8679 0.840933C39.8625 2.40277 41.1754 3.444 43.0452 3.64423C43.6817 3.72432 43.9602 3.96461 43.9204 4.64541C43.8806 5.36626 43.3634 5.44635 42.8462 5.4063C40.8571 5.20607 39.2658 4.20489 37.9927 2.48286Z" fill="#57ACA3"/>
<path d="M6.08679 16.7397C4.93309 18.3015 3.54068 19.3428 1.6311 19.543C0.915002 19.6231 0.159125 19.7432 0.0397757 18.8222C-0.0795733 17.9812 0.556955 17.861 1.23327 17.7809C2.86437 17.5406 4.01808 16.6196 4.97287 15.298C6.00723 13.8563 6.24592 13.8563 7.2405 15.258C9.70705 18.702 13.1682 18.662 15.6745 15.1779C16.5895 13.8964 16.9078 13.8964 17.783 15.1378C20.3689 18.702 23.7107 18.7421 26.2966 15.1779C27.2513 13.8964 27.5298 13.8964 28.4846 15.258C30.9114 18.662 34.4123 18.662 36.8391 15.298C37.8734 13.8563 38.1519 13.8563 39.1067 15.258C40.0615 16.6596 41.2948 17.5807 42.9656 17.7809C43.6022 17.861 44.0796 17.9812 44 18.7821C43.9204 19.7032 43.2441 19.6231 42.6474 19.583C40.698 19.3828 39.1862 18.3816 38.0325 16.7397C36.8391 18.1013 35.566 19.2627 33.6962 19.503C31.5877 19.7833 29.7179 19.3027 28.2857 17.7008C27.6492 16.98 27.3309 16.8198 26.5353 17.6207C23.9096 20.384 20.0904 20.3039 17.4647 17.5406C17.1465 17.1802 17.0271 16.5395 16.2315 17.2603C12.8101 20.5842 9.38878 20.424 6.08679 16.7397Z" fill="#57ACA3"/>
</g>
<defs>
<clipPath id="clip0_1_480">
<rect width="44" height="34" fill="white"/>
</clipPath>
</defs>
</svg>
