<svg width="41" height="45" viewBox="0 0 41 45" fill="none" xmlns="http://www.w3.org/2000/svg">
<path d="M20.7682 44.0192C14.6576 44.0192 8.54698 43.9771 2.43636 44.0614C1.21424 44.0614 0.750671 43.8085 0.750671 42.46C0.792814 30.2387 0.792814 18.0175 0.750671 5.79624C0.750671 4.44769 1.08781 3.94198 2.4785 4.02626C4.62776 4.11055 4.71204 4.02626 4.62776 1.83487C4.58561 0.528459 5.04918 0.275605 6.22916 0.317748C10.9069 0.402032 15.5847 0.402032 20.2625 0.317748C21.4846 0.317748 21.8639 0.654885 21.8218 1.87701C21.7375 4.02626 21.8218 4.11055 24.0132 4.02626C25.2774 3.98412 25.6567 4.3634 25.5724 5.58553C25.4882 7.18693 25.6146 8.78834 25.5303 10.3897C25.4882 11.4012 25.8674 11.6961 26.8789 11.6961C31.0088 11.654 35.1387 11.7383 39.2687 11.654C40.6172 11.6119 40.9544 12.0754 40.9122 13.3397C40.8701 23.0324 40.8701 32.7251 40.9122 42.4178C40.9122 43.6821 40.6172 44.1035 39.2687 44.1035C33.1159 43.9771 26.921 44.0192 20.7682 44.0192Z" fill="#57ACA3"/>
<path d="M2.68924 24.1281C2.68924 18.6074 2.73138 13.129 2.64709 7.60832C2.64709 6.3862 2.85781 5.83835 4.2485 5.92263C6.52418 6.04906 6.56632 5.92263 6.52418 3.52053C6.48204 2.34054 6.90346 2.00341 8.0413 2.04555C11.4548 2.12983 14.8683 2.12983 18.2819 2.04555C19.504 2.00341 19.9254 2.2984 19.8833 3.60481C19.799 5.92263 19.8833 6.00692 22.2011 5.92263C23.4654 5.88049 23.7604 6.30191 23.7604 7.52404C23.7182 18.5232 23.7182 29.5223 23.7604 40.5214C23.7604 41.8278 23.4232 42.2914 22.1168 42.2071C20.3047 42.0807 18.4926 42.1228 16.6805 42.2071C15.5848 42.2492 15.0791 41.9542 15.1633 40.7321C15.2476 39.4257 15.1212 38.0772 15.2055 36.7707C15.2898 35.6329 14.8262 35.2958 13.7726 35.3801C13.3512 35.4222 12.8877 35.4222 12.4662 35.3801C11.6234 35.2958 11.2863 35.6329 11.3284 36.5179C11.3705 37.9929 11.2863 39.51 11.3705 40.985C11.4127 41.9542 11.0334 42.2071 10.1063 42.2071C8.16773 42.165 6.27133 42.1228 4.33278 42.2071C3.11066 42.2492 2.73138 41.87 2.73138 40.6057C2.73138 35.1272 2.68924 29.6487 2.68924 24.1281Z" fill="#FEFEFE"/>
<path d="M25.5303 27.7944C25.5303 23.4959 25.5724 19.1974 25.5303 14.8988C25.5303 13.9296 25.741 13.5503 26.7946 13.5503C30.4188 13.5924 34.043 13.5924 37.7094 13.5503C38.7629 13.5503 38.9737 13.9296 38.9737 14.8988C38.9315 23.538 38.9315 32.1772 38.9737 40.8163C38.9737 41.7434 38.7629 42.207 37.7094 42.207C34.0852 42.1649 30.4609 42.1649 26.7946 42.207C25.741 42.207 25.4881 41.7434 25.5303 40.8163C25.5724 36.4757 25.5303 32.135 25.5303 27.7944Z" fill="#FEFEFE"/>
<path d="M19.8411 37.9087C19.8411 38.3301 19.7989 38.7937 19.8411 39.2151C19.8832 39.9736 19.6304 40.3108 18.8297 40.2686C18.1132 40.2686 17.8604 39.9315 17.9025 39.2572C17.9447 38.3301 17.9447 37.403 17.9025 36.4758C17.8604 35.7173 18.1554 35.3801 18.9561 35.3801C19.8832 35.3801 19.8832 35.928 19.8411 36.5601C19.8411 37.0658 19.8411 37.4872 19.8411 37.9087Z" fill="#62B1A9"/>
<path d="M6.56631 37.9086C6.56631 37.3607 6.56631 36.8129 6.56631 36.265C6.56631 35.5907 6.94559 35.4222 7.49344 35.4643C8.04129 35.4643 8.50485 35.5907 8.50485 36.265C8.50485 37.2343 8.50485 38.2457 8.50485 39.215C8.547 39.9314 8.37843 40.3528 7.53558 40.3528C6.69274 40.3528 6.48203 39.9735 6.52417 39.2571C6.56631 38.7935 6.56631 38.33 6.56631 37.9086Z" fill="#64B2AA"/>
<path d="M17.9025 14.4353C17.9025 14.0982 17.9025 13.761 17.9025 13.466C17.8604 12.6653 18.324 12.5811 18.9561 12.5811C19.5461 12.5811 19.8832 12.7496 19.8411 13.4239C19.7989 14.0139 19.8411 14.646 19.8411 15.236C19.8411 15.9103 19.9254 16.5424 18.8718 16.5424C17.9025 16.5424 17.8182 15.9946 17.8604 15.2782C17.9025 14.9832 17.9025 14.6882 17.9025 14.4353Z" fill="#62B1A8"/>
<path d="M19.8411 31.7137C19.8411 32.093 19.8411 32.4723 19.8411 32.8516C19.8833 33.5258 19.504 33.6523 18.914 33.6523C18.3661 33.6523 17.9447 33.5258 17.9026 32.8937C17.9026 32.3037 17.9026 31.7137 17.9026 31.1237C17.8604 30.3652 17.8604 29.733 18.9561 29.7752C20.0097 29.8173 19.8411 30.4495 19.8411 31.0816C19.8411 31.2923 19.8411 31.503 19.8411 31.7137Z" fill="#62B1A9"/>
<path d="M8.50485 15.0676C8.50485 15.1097 8.547 15.6997 8.33629 16.1633C8.12557 16.6269 7.57773 16.4583 7.1563 16.4583C6.6506 16.4583 6.52417 16.1212 6.52417 15.6997C6.52417 15.0255 6.52417 14.3933 6.52417 13.719C6.52417 13.0869 6.52417 12.5391 7.40916 12.5391C8.33629 12.5391 8.547 12.9605 8.46271 13.719C8.50485 14.014 8.50485 14.309 8.50485 15.0676Z" fill="#63B1A9"/>
<path d="M12.2555 14.646C12.2555 15.0253 12.2555 15.4046 12.2555 15.7839C12.2555 16.3739 11.9183 16.5424 11.4126 16.5003C10.9069 16.5003 10.3591 16.5003 10.3169 15.826C10.2748 15.1939 10.3169 14.5196 10.2748 13.8875C10.2748 13.2132 10.2326 12.6232 11.2441 12.5811C12.2555 12.5811 12.2555 13.1289 12.2555 13.8453C12.2555 14.0982 12.2555 14.351 12.2555 14.646Z" fill="#62B1A8"/>
<path d="M14.194 14.4775C14.194 14.0982 14.194 13.7189 14.194 13.3396C14.1519 12.6232 14.6155 12.5811 15.1633 12.5811C15.7112 12.5811 16.1326 12.6232 16.1326 13.3396C16.1326 13.9717 16.1326 14.646 16.1326 15.2782C16.1747 16.0367 15.964 16.5003 15.0369 16.5003C14.1098 16.5003 14.1519 15.9103 14.1519 15.2782C14.194 15.0253 14.194 14.7725 14.194 14.4775Z" fill="#63B1A9"/>
<path d="M16.1747 31.6293C16.1326 32.1772 16.1747 32.7671 16.0061 33.2729C15.8376 33.7786 15.2897 33.6521 14.8683 33.6521C14.3626 33.6521 14.194 33.3571 14.194 32.8936C14.194 32.2193 14.194 31.5872 14.194 30.9129C14.194 30.2808 14.194 29.7329 15.1212 29.7329C16.0904 29.7329 16.2169 30.1965 16.1747 30.955C16.1326 31.2079 16.1326 31.4186 16.1747 31.6293Z" fill="#63B2A9"/>
<path d="M12.2555 31.7137C11.9605 32.2615 12.8455 33.3572 11.5812 33.6522C10.8648 33.8208 10.2748 33.6101 10.317 32.6408C10.3591 32.093 10.3591 31.5451 10.317 30.9973C10.2748 30.2387 10.4013 29.733 11.3705 29.7752C12.2977 29.7752 12.2977 30.2809 12.2977 30.9551C12.2555 31.1237 12.2555 31.3766 12.2555 31.7137Z" fill="#62B1A9"/>
<path d="M8.50483 31.6294C8.50483 32.0087 8.50483 32.388 8.50483 32.7672C8.50483 33.5258 8.04127 33.6522 7.45128 33.6522C6.86128 33.6522 6.56629 33.3994 6.56629 32.8094C6.56629 32.2194 6.56629 31.6294 6.56629 31.0394C6.56629 30.3651 6.52415 29.7751 7.53556 29.7751C8.50483 29.7751 8.58912 30.323 8.54697 31.0394C8.50483 31.208 8.50483 31.4187 8.50483 31.6294Z" fill="#63B2A9"/>
<path d="M8.50487 20.2932C8.50487 20.6303 8.50487 20.9675 8.50487 21.2625C8.54701 22.0632 8.08345 22.1474 7.45131 22.1474C6.86132 22.1474 6.48204 21.9789 6.52418 21.3046C6.56633 20.7146 6.52418 20.0825 6.52418 19.4925C6.52418 18.9025 6.4399 18.2704 7.36703 18.2282C8.25202 18.1861 8.54701 18.6075 8.50487 19.4503C8.50487 19.7453 8.50487 20.0403 8.50487 20.2932Z" fill="#63B2A9"/>
<path d="M10.3169 20.0825C10.3169 19.7453 10.3169 19.4082 10.3169 19.1132C10.3169 18.3125 10.9069 18.3125 11.4548 18.3125C12.129 18.3125 12.2555 18.6918 12.2555 19.2818C12.2555 19.8296 12.2555 20.3775 12.2555 20.9253C12.2555 21.5996 12.3398 22.2317 11.2862 22.2317C10.2748 22.2317 10.2326 21.6839 10.2748 20.9675C10.3169 20.6303 10.3169 20.3775 10.3169 20.0825Z" fill="#62B1A9"/>
<path d="M16.0904 20.251C16.0904 20.6724 16.1326 21.136 16.0904 21.5574C16.0483 22.1896 15.5426 22.1474 15.1212 22.1474C14.6997 22.1474 14.194 22.1896 14.194 21.5153C14.194 20.841 14.194 20.2089 14.194 19.5346C14.194 18.8603 14.1519 18.1861 15.1633 18.2282C16.1326 18.2703 16.1747 18.8603 16.1326 19.5767C16.1326 19.8296 16.1326 20.0403 16.0904 20.251C16.1326 20.251 16.1326 20.251 16.0904 20.251Z" fill="#63B2A9"/>
<path d="M19.8411 20.7567C19.8411 20.8409 19.9254 21.3466 19.7568 21.8102C19.5882 22.3581 18.9982 22.1052 18.6189 22.1473C18.1554 22.1895 17.9025 21.9366 17.9025 21.4731C17.9025 20.7988 17.9447 20.1667 17.9025 19.4924C17.8604 18.6917 18.1132 18.2703 18.9982 18.2703C19.9675 18.2703 19.8411 18.9024 19.8411 19.4924C19.8411 19.7874 19.8411 20.0824 19.8411 20.7567Z" fill="#62B1A9"/>
<path d="M19.8833 25.9823C19.6304 26.6566 20.4311 27.9209 18.8297 27.8366C17.2704 27.7523 17.9869 26.5723 17.9447 25.8559C17.9026 25.1816 17.3969 24.0859 18.8719 24.0859C20.4733 24.0859 19.5883 25.3081 19.8833 25.9823Z" fill="#5DAFA6"/>
<path d="M16.1326 26.4458C16.1326 26.488 16.1748 27.0779 15.964 27.5415C15.7533 28.0051 15.2055 27.7944 14.7841 27.7944C14.2362 27.7944 14.1941 27.4151 14.1941 26.9937C14.1941 26.4458 14.1941 25.898 14.1941 25.3501C14.1941 24.718 14.0676 24.0437 15.1212 24.0437C16.0905 24.0437 16.1748 24.5494 16.1326 25.308C16.0905 25.5187 16.1326 25.7294 16.1326 26.4458Z" fill="#5EAFA6"/>
<path d="M12.2976 25.8981C12.0026 26.6566 12.8033 27.9209 11.2019 27.8366C9.64266 27.7523 10.4012 26.5723 10.3169 25.8559C10.2748 25.1816 9.81123 24.0859 11.2441 24.0859C12.9298 24.0859 11.9183 25.3502 12.2976 25.8981Z" fill="#5DAFA6"/>
<path d="M6.48199 26.0246C6.77699 25.266 6.01843 24.1282 7.49341 24.0861C9.05267 24.0439 8.50482 25.2239 8.50482 25.9403C8.50482 26.6567 9.09481 27.8367 7.53555 27.7946C5.80772 27.7946 6.9877 26.446 6.48199 26.0246Z" fill="#5EAFA6"/>
<path d="M19.8411 8.83051C19.9254 9.63121 19.5882 9.84192 18.8718 9.84192C18.029 9.84192 17.8604 9.37835 17.8604 8.66194C17.8604 7.81909 18.3661 7.86123 18.9561 7.81909C19.7568 7.86123 19.9675 8.24051 19.8411 8.83051Z" fill="#69B4AC"/>
<path d="M15.0369 7.90326C15.669 7.86112 16.1326 7.98755 16.1326 8.74611C16.1326 9.46253 15.9219 9.88395 15.1212 9.88395C14.4048 9.88395 14.1519 9.58895 14.1519 8.91468C14.1519 8.2404 14.3205 7.81898 15.0369 7.90326Z" fill="#6AB5AD"/>
<path d="M12.2555 8.9147C12.3398 9.63112 12.0027 9.88397 11.2863 9.88397C10.4434 9.88397 10.2748 9.46255 10.2748 8.74613C10.2748 7.94543 10.7805 7.94543 11.3705 7.90329C12.1712 7.86115 12.3398 8.28257 12.2555 8.9147Z" fill="#69B4AC"/>
<path d="M7.49344 7.90337C8.16772 7.81909 8.547 8.0298 8.547 8.78836C8.547 9.54692 8.252 9.88406 7.4513 9.88406C6.69274 9.88406 6.56631 9.50477 6.52417 8.87264C6.52417 8.15622 6.77702 7.81909 7.49344 7.90337Z" fill="#6AB5AD"/>
<path d="M37.0351 24.0437C37.1616 24.8444 36.7823 25.0973 36.0237 25.0973C35.3494 25.0973 35.0544 24.8444 35.0544 24.128C35.0544 23.3273 35.3494 23.0745 36.108 23.0745C36.7823 23.1166 37.1194 23.2852 37.0351 24.0437Z" fill="#62B1A8"/>
<path d="M28.4381 25.0551C27.6374 25.1816 27.4689 24.718 27.4689 24.0016C27.4689 23.243 27.806 23.1166 28.4803 23.0745C29.281 23.0323 29.4917 23.4116 29.4917 24.1702C29.4074 24.8866 29.1124 25.1394 28.4381 25.0551Z" fill="#65B2AA"/>
<path d="M35.8973 21.1782C35.1809 21.2625 35.0545 20.8411 35.0545 20.1668C35.0123 19.3239 35.4759 19.1975 36.1502 19.1975C37.0773 19.1975 36.993 19.7454 37.0352 20.3775C37.0773 21.2625 36.4873 21.1782 35.8973 21.1782Z" fill="#61B0A8"/>
<path d="M29.4074 20.2931C29.5338 21.0517 29.1124 21.1781 28.4381 21.2203C27.6374 21.2624 27.4267 20.9253 27.4267 20.1667C27.4267 19.4503 27.7638 19.2817 28.396 19.2396C29.2388 19.1974 29.5338 19.5346 29.4074 20.2931Z" fill="#64B2AA"/>
<path d="M29.4074 27.7102C29.4917 28.4267 29.3231 28.8059 28.5645 28.8059C27.8903 28.8059 27.4267 28.7217 27.4267 27.8788C27.4688 27.2467 27.5531 26.8253 28.3117 26.8674C28.9438 26.8674 29.576 26.8674 29.4074 27.7102Z" fill="#65B3AA"/>
<path d="M37.0351 27.9209C37.1616 28.6795 36.698 28.8059 36.0659 28.8059C35.2652 28.848 35.0544 28.5109 35.0544 27.7523C35.0544 26.9938 35.4337 26.8673 36.0659 26.8252C36.8244 26.8252 37.1194 27.1623 37.0351 27.9209Z" fill="#62B1A9"/>
<path d="M37.0351 16.416C37.1616 17.1745 36.8666 17.5117 36.0659 17.4695C35.4337 17.4274 35.0544 17.301 35.0544 16.5424C35.0544 15.7839 35.2652 15.4467 36.0659 15.4889C36.698 15.531 37.1194 15.6153 37.0351 16.416Z" fill="#63B1A9"/>
<path d="M29.4074 16.4583C29.4917 17.259 29.1124 17.4276 28.4803 17.4697C27.6796 17.4697 27.4689 17.1747 27.4689 16.4161C27.4689 15.5312 27.9746 15.489 28.6067 15.489C29.3231 15.489 29.4917 15.9104 29.4074 16.4583Z" fill="#65B3AA"/>
<path d="M28.4803 32.6829C27.7217 32.8094 27.4267 32.4301 27.4267 31.6715C27.4267 30.9551 27.6796 30.7444 28.396 30.7444C29.1545 30.7444 29.4495 30.9972 29.4495 31.7558C29.4074 32.4301 29.1967 32.7672 28.4803 32.6829Z" fill="#64B2AA"/>
<path d="M36.108 30.7444C36.993 30.618 36.993 31.1237 37.0352 31.7558C37.0773 32.6408 36.5716 32.683 35.8973 32.683C35.1388 32.683 35.0545 32.2615 35.0123 31.6294C35.0123 30.7866 35.4759 30.6601 36.108 30.7444Z" fill="#61B0A8"/>
<path d="M29.4074 35.4643C29.4917 36.1807 29.1545 36.3914 28.4803 36.4336C27.7217 36.4336 27.4267 36.1807 27.4267 35.4222C27.4267 34.7479 27.6796 34.4529 28.396 34.4529C29.1545 34.4529 29.5338 34.6636 29.4074 35.4643Z" fill="#65B2AA"/>
<path d="M35.9395 36.3914C35.223 36.4757 35.0966 36.0543 35.0545 35.4222C35.0123 34.5793 35.4337 34.4529 36.1502 34.4529C37.0351 34.4529 37.0351 35.0007 37.0351 35.6329C37.0773 36.4336 36.5294 36.4336 35.9395 36.3914Z" fill="#62B1A9"/>
<path d="M28.4381 38.3723C29.2388 38.2459 29.4074 38.6251 29.4074 39.2994C29.4495 40.1001 29.1124 40.3108 28.3538 40.3108C27.4688 40.3108 27.4267 39.8473 27.4267 39.173C27.4267 38.4144 27.8481 38.288 28.4381 38.3723Z" fill="#63B2A9"/>
<path d="M37.0351 39.4257C37.1194 40.1843 36.6558 40.2686 36.0237 40.3107C35.1809 40.3528 35.0544 39.8893 35.0544 39.215C35.0544 38.2879 35.6444 38.3722 36.2344 38.33C37.0773 38.2879 37.0351 38.8779 37.0351 39.4257Z" fill="#60B0A8"/>
<path d="M33.1159 23.9594C33.2002 24.718 32.9474 25.0551 32.2309 25.0551C31.4724 25.0551 31.3459 24.6337 31.3459 24.0016C31.3459 23.4116 31.5145 23.0745 32.1888 23.0745C32.8209 23.1166 33.2845 23.243 33.1159 23.9594Z" fill="#58ACA3"/>
<path d="M33.1159 20.251C33.2002 20.9675 32.9052 21.2203 32.1888 21.2203C31.5566 21.2203 31.3038 20.9675 31.3459 20.3353C31.3459 19.7032 31.4302 19.2818 32.2309 19.2818C32.9052 19.2396 33.2002 19.5346 33.1159 20.251Z" fill="#57ACA3"/>
<path d="M32.1888 28.7638C31.3881 28.8481 31.3038 28.3846 31.3038 27.7524C31.3038 27.1624 31.5145 26.8674 32.1466 26.8674C32.863 26.8674 33.1159 27.1624 33.1159 27.8367C33.158 28.511 32.9473 28.8903 32.1888 28.7638Z" fill="#57ABA2"/>
<path d="M32.273 17.4274C31.5988 17.5117 31.3038 17.1746 31.3038 16.5003C31.3038 15.9946 31.3459 15.531 32.0623 15.531C32.6523 15.531 33.158 15.5731 33.1159 16.3739C33.1159 16.9638 33.1159 17.4695 32.273 17.4274Z" fill="#57ABA2"/>
<path d="M32.1888 32.6409C31.3881 32.7252 31.3459 32.2195 31.3038 31.5874C31.2617 30.7867 31.6831 30.7024 32.3152 30.7024C33.0316 30.7024 33.0738 31.1238 33.1159 31.6717C33.1581 32.3881 32.9052 32.7252 32.1888 32.6409Z" fill="#57ABA3"/>
<path d="M33.1159 35.4222C33.2002 36.0964 32.9473 36.4336 32.2309 36.3914C31.6409 36.3914 31.3038 36.1807 31.3459 35.5486C31.3459 34.9586 31.3459 34.4529 32.1888 34.4529C32.8631 34.4529 33.2002 34.7057 33.1159 35.4222Z" fill="#57ABA2"/>
<path d="M32.1888 38.3722C32.9052 38.2879 33.158 38.625 33.1159 39.2993C33.1159 39.9314 32.9895 40.3107 32.2309 40.3107C31.5145 40.3107 31.3038 40.0157 31.3038 39.3415C31.3459 38.7093 31.4302 38.2458 32.1888 38.3722Z" fill="#5CAEA5"/>
</svg>
