<svg width="28" height="28" viewBox="0 0 28 28" fill="none" xmlns="http://www.w3.org/2000/svg">
<path d="M13.8321 0.769043C21.118 0.769043 27.0244 6.67544 27.0244 13.9614C27.0244 21.2472 21.118 27.1537 13.8321 27.1537C11.4128 27.1537 9.14555 26.5025 7.19619 25.3657L0.645285 27.1537L2.42883 20.5991C1.29142 18.6494 0.639771 16.3815 0.639771 13.9614C0.639771 6.67544 6.54617 0.769043 13.8321 0.769043ZM9.07142 7.77196C8.90073 7.78395 8.73337 7.82563 8.581 7.90359C8.46669 7.96207 8.36057 8.04659 8.19383 8.20404C8.03638 8.35271 7.94513 8.48255 7.84898 8.60773C7.36126 9.24273 7.09913 10.0222 7.104 10.8229C7.10665 11.4701 7.27478 12.0991 7.54028 12.6864C8.0787 13.8774 8.96662 15.1365 10.1395 16.3042C10.4212 16.5846 10.6973 16.8681 10.9949 17.1301C12.4506 18.4119 14.1854 19.3362 16.0612 19.8296C16.0612 19.8296 16.8 19.943 16.8108 19.9437C17.0555 19.9569 17.2998 19.9392 17.5448 19.9266C17.9291 19.9069 18.3043 19.8029 18.6439 19.622C18.8622 19.5058 18.9655 19.448 19.1487 19.3325C19.1487 19.3325 19.2049 19.2945 19.3134 19.2137C19.4915 19.081 19.6015 18.9876 19.7496 18.8338C19.8589 18.7203 19.9528 18.5863 20.0254 18.4353C20.1285 18.22 20.2324 17.809 20.2736 17.4677C20.3052 17.2071 20.2957 17.0646 20.2922 16.9763C20.2866 16.8344 20.1693 16.6883 20.0408 16.6263L19.2737 16.2815C19.2737 16.2815 18.1266 15.7823 17.425 15.4622C17.3519 15.4289 17.272 15.4134 17.1917 15.4085C17.0157 15.3977 16.8184 15.4436 16.693 15.5758C16.6864 15.5732 16.5991 15.6486 15.6446 16.805C15.592 16.8679 15.4686 17.0047 15.2553 16.9919C15.2231 16.9896 15.191 16.985 15.1598 16.9768C15.0734 16.954 14.9892 16.9239 14.9069 16.8891C14.7437 16.8199 14.6864 16.7936 14.575 16.7456C13.8134 16.4129 13.1144 15.9678 12.4966 15.4231C12.331 15.2772 12.1769 15.12 12.018 14.9661C11.4637 14.4288 11.0099 13.8573 10.6722 13.2936C10.6538 13.2628 10.6254 13.2184 10.5948 13.1686C10.5396 13.0788 10.4787 12.9719 10.4596 12.8986C10.4105 12.7045 10.5406 12.5486 10.5406 12.5486C10.5406 12.5486 10.8617 12.1975 11.0109 12.0066C11.1544 11.8229 11.2783 11.6432 11.3572 11.5151C11.5126 11.2653 11.5618 11.0071 11.4802 10.8079C11.1101 9.90557 10.7282 9.00811 10.3346 8.11576C10.257 7.93966 10.0259 7.8117 9.81582 7.78744C9.74467 7.77922 9.67356 7.77097 9.60211 7.76627C9.42525 7.75764 9.24804 7.75954 9.07142 7.77196Z" fill="#142949"/>
</svg>
