<svg width="15" height="15" viewBox="0 0 15 15" fill="#6C738C" stroke="#6C738C" xmlns="http://www.w3.org/2000/svg">
<path d="M7.80137 0.416748C11.7133 0.416748 14.8847 3.58806 14.8847 7.50008C14.8847 11.4121 11.7133 14.5834 7.80137 14.5834C6.50235 14.5834 5.28502 14.2338 4.23835 13.6234L0.720979 14.5834L1.67862 11.0641C1.06791 10.0172 0.718018 8.79952 0.718018 7.50008C0.718018 3.58806 3.88933 0.416748 7.80137 0.416748ZM5.24522 4.17682C5.15357 4.18325 5.06371 4.20564 4.98189 4.24749C4.92052 4.27889 4.86354 4.32428 4.77401 4.40882C4.68947 4.48864 4.64048 4.55835 4.58885 4.62557C4.32698 4.96652 4.18624 5.38503 4.18885 5.81494C4.19027 6.16247 4.28054 6.5002 4.4231 6.81555C4.7122 7.45503 5.18895 8.13106 5.8187 8.75801C5.96997 8.9086 6.11817 9.06082 6.27798 9.2015C7.0596 9.88972 7.99106 10.386 8.99824 10.6509C8.99824 10.6509 9.3949 10.7118 9.40071 10.7122C9.53211 10.7192 9.66329 10.7098 9.79483 10.703C10.0012 10.6924 10.2026 10.6366 10.3849 10.5395C10.5022 10.4771 10.5576 10.446 10.656 10.384C10.656 10.384 10.6862 10.3636 10.7444 10.3202C10.84 10.249 10.8991 10.1988 10.9787 10.1162C11.0373 10.0553 11.0877 9.98336 11.1267 9.90225C11.1821 9.78665 11.2378 9.56601 11.26 9.38276C11.2769 9.24279 11.2718 9.1663 11.27 9.11891C11.267 9.04269 11.204 8.96428 11.135 8.93099L10.7231 8.74583C10.7231 8.74583 10.1072 8.47779 9.73051 8.30595C9.69127 8.28803 9.64834 8.27974 9.60521 8.27712C9.51071 8.27132 9.40482 8.29596 9.33746 8.36694C9.33391 8.36552 9.28702 8.40604 8.77454 9.02689C8.74628 9.06068 8.68005 9.13414 8.56551 9.12726C8.54823 9.12606 8.53102 9.12358 8.51423 9.11919C8.46784 9.10694 8.42264 9.09079 8.37844 9.07209C8.29082 9.0349 8.26008 9.0208 8.20023 8.99502C7.79131 8.81638 7.41603 8.57739 7.08432 8.28491C6.99535 8.20657 6.91262 8.12221 6.82734 8.03955C6.52969 7.75104 6.28602 7.44419 6.10474 7.14152C6.09485 7.12502 6.0796 7.10115 6.06317 7.07444C6.03351 7.02621 6.0008 6.96883 5.99055 6.92945C5.96422 6.82525 6.03407 6.74153 6.03407 6.74153C6.03407 6.74153 6.20647 6.55304 6.28658 6.45054C6.36365 6.35187 6.43017 6.2554 6.47253 6.18662C6.55597 6.05248 6.58239 5.91385 6.53855 5.8069C6.33982 5.32242 6.13478 4.84055 5.92347 4.36141C5.88177 4.26686 5.75772 4.19816 5.64491 4.18513C5.6067 4.18072 5.56852 4.17628 5.53016 4.17376C5.4352 4.16913 5.34005 4.17015 5.24522 4.17682Z" fill="white"/>
</svg>
