<svg width="16" height="15" viewBox="0 0 16 15" fill="none" xmlns="http://www.w3.org/2000/svg">
<path d="M7.80066 5C6.41995 5 5.30066 6.11929 5.30066 7.5C5.30066 8.88071 6.41995 10 7.80066 10C9.18137 10 10.3007 8.88071 10.3007 7.5C10.3007 6.11929 9.18137 5 7.80066 5Z" fill="white"/>
<path fill-rule="evenodd" clip-rule="evenodd" d="M4.80066 0C2.31538 0 0.300659 2.01472 0.300659 4.5V10.5C0.300659 12.9853 2.31538 15 4.80066 15H10.8007C13.2859 15 15.3007 12.9853 15.3007 10.5V4.5C15.3007 2.01472 13.2859 0 10.8007 0H4.80066ZM4.30066 7.5C4.30066 5.567 5.86766 4 7.80066 4C9.73366 4 11.3007 5.567 11.3007 7.5C11.3007 9.433 9.73366 11 7.80066 11C5.86766 11 4.30066 9.433 4.30066 7.5ZM11.3007 4H12.3007V3H11.3007V4Z" fill="white"/>
</svg>
