<svg width="37" height="27" viewBox="0 0 37 27" fill="none" xmlns="http://www.w3.org/2000/svg">
<path opacity="0.7" d="M35.8038 20.2245C37 20.3065 37 20.3065 37 21.4846C37 22.0071 37 22.5296 37 23.0521C37 23.7385 36.8206 23.9127 36.1627 23.9229C36.063 23.9229 35.9633 23.9229 35.8038 23.9229C35.8038 24.1483 35.8038 24.3532 35.8038 24.5684C35.8038 25.1318 35.8038 25.6953 35.8038 26.2588C35.8038 26.7608 35.5845 26.9862 35.106 26.9964C34.5877 27.0067 34.0593 26.9964 33.541 26.9964C33.0924 26.9964 32.913 26.8427 32.8233 26.392C32.6638 25.5929 32.5043 24.7938 32.3448 23.9639C23.1241 23.9639 13.9133 23.9639 4.66269 23.9639C4.5032 24.763 4.34371 25.5621 4.18421 26.351C4.08453 26.853 3.91507 26.9964 3.41665 26.9964C2.90826 26.9964 2.39988 26.9964 1.89149 26.9964C1.40304 26.9862 1.19371 26.771 1.19371 26.2588C1.18374 25.5007 1.18374 24.7528 1.18374 23.9947C1.18374 23.9844 1.17377 23.9742 1.1339 23.9229C0.984374 23.9229 0.804944 23.9332 0.615545 23.9229C0.236748 23.9024 0.00747626 23.6771 0.00747626 23.2878C-0.00249209 22.4784 -0.00249209 21.6793 0.00747626 20.8699C0.0174446 20.4806 0.246717 20.2655 0.615545 20.245C0.785007 20.2348 0.964437 20.245 1.19371 20.245C1.19371 20.1016 1.19371 19.9581 1.19371 19.825C1.19371 18.4624 1.24355 17.0896 1.18374 15.727C1.12393 14.3542 1.83168 13.0428 3.58611 12.8481C3.58611 12.7047 3.58611 12.551 3.58611 12.3974C3.58611 9.14972 3.58611 5.90207 3.58611 2.65442C3.57614 1.00498 4.56301 0.000976562 6.17788 0.000976562C14.3818 0.000976562 22.5957 0.000976562 30.7997 0.000976562C32.4445 0.000976562 33.4114 1.00498 33.4114 2.6954C33.4114 5.94305 33.4114 9.1907 33.4114 12.4383C33.4114 12.5818 33.4114 12.715 33.4114 12.7969C33.8301 12.9404 34.2288 13.0223 34.5677 13.2067C35.3752 13.6575 35.7839 14.3951 35.7938 15.3377C35.8038 16.8232 35.7938 18.2985 35.7938 19.784C35.8038 19.9274 35.8038 20.0606 35.8038 20.2245ZM32.2252 12.8686C32.2252 12.715 32.2252 12.6023 32.2252 12.4896C32.2252 9.20094 32.2252 5.92256 32.2252 2.63393C32.2252 1.70164 31.7567 1.22013 30.8396 1.22013C22.6057 1.22013 14.3818 1.22013 6.14798 1.22013C5.22092 1.22013 4.76238 1.69139 4.76238 2.66466C4.76238 5.92256 4.76238 9.18045 4.76238 12.4383C4.76238 12.5715 4.76238 12.715 4.76238 12.8481C5.18105 12.8481 5.55984 12.8481 5.95858 12.8481C5.95858 12.0081 5.94861 11.1885 5.95858 10.3689C5.98848 9.05751 7.01522 7.99204 8.30114 7.98179C10.7234 7.9613 13.1458 7.97155 15.578 7.98179C16.6845 7.99204 17.6614 8.79115 17.8209 9.90784C17.9405 10.7172 17.8807 11.5573 17.9007 12.3871C17.9007 12.551 17.9007 12.7047 17.9007 12.8584C18.3293 12.8584 18.6981 12.8584 19.0969 12.8584C19.0969 12.1003 19.0969 11.3626 19.0969 10.625C19.0969 8.9858 20.0837 7.97155 21.6787 7.97155C23.9116 7.97155 26.1544 7.97155 28.3874 7.97155C30.062 7.97155 31.029 8.96531 31.029 10.6762C31.029 11.4036 31.029 12.1208 31.029 12.8584C31.4476 12.8686 31.8165 12.8686 32.2252 12.8686ZM2.37994 20.2245C13.1458 20.2245 23.8717 20.2245 34.6076 20.2245C34.6076 18.6673 34.6076 17.1305 34.6076 15.604C34.6076 14.5693 34.169 14.1185 33.1522 14.1185C23.3832 14.1185 13.6043 14.1185 3.83532 14.1185C3.72567 14.1185 3.61602 14.1185 3.4964 14.1185C2.8983 14.1595 2.38991 14.641 2.37994 15.2557C2.36997 16.8949 2.37994 18.5443 2.37994 20.2245ZM1.20368 22.6731C12.747 22.6731 24.2704 22.6731 35.7739 22.6731C35.7739 22.2633 35.7739 21.8739 35.7739 21.4846C24.2405 21.4846 12.7271 21.4846 1.20368 21.4846C1.20368 21.8842 1.20368 22.2633 1.20368 22.6731ZM16.7045 12.8686C16.7045 12.0081 16.7244 11.1885 16.7045 10.3689C16.6845 9.72344 16.1761 9.21119 15.5481 9.20094C13.1358 9.1907 10.7234 9.1907 8.31111 9.20094C7.76285 9.20094 7.24449 9.61074 7.20462 10.1537C7.14481 11.045 7.18468 11.9568 7.18468 12.8584C10.3646 12.8686 13.5146 12.8686 16.7045 12.8686ZM29.8328 12.8686C29.8328 12.0183 29.8427 11.2192 29.8328 10.4098C29.8228 9.73368 29.3144 9.21119 28.6665 9.21119C26.2641 9.20094 23.8717 9.20094 21.4693 9.21119C20.8014 9.21119 20.303 9.74393 20.2831 10.4303C20.2731 11.1475 20.2831 11.8646 20.2831 12.5715C20.2831 12.6637 20.303 12.7662 20.313 12.8584C23.4929 12.8686 26.6429 12.8686 29.8328 12.8686ZM3.43659 23.9537C3.05779 23.9537 2.72883 23.9537 2.39988 23.9537C2.39988 24.5684 2.39988 25.1523 2.39988 25.7465C2.63912 25.7465 2.84845 25.7465 3.08769 25.7465C3.20731 25.1421 3.31697 24.5581 3.43659 23.9537ZM34.5877 25.7568C34.5877 25.1626 34.5877 24.5581 34.5877 23.9434C34.2487 23.9434 33.9198 23.9434 33.5609 23.9434C33.6407 24.3635 33.7204 24.7528 33.7902 25.1523C33.9098 25.7875 33.9098 25.7875 34.5877 25.7568Z" fill="#57ACA3"/>
</svg>
