<svg width="20" height="20" viewBox="0 0 20 20" fill="none" xmlns="http://www.w3.org/2000/svg">
<path d="M9.84375 6.37878C8.03157 6.37878 6.5625 7.80759 6.5625 9.57012C6.5625 11.3327 8.03157 12.7615 9.84375 12.7615C11.6559 12.7615 13.125 11.3327 13.125 9.57012C13.125 7.80759 11.6559 6.37878 9.84375 6.37878Z" fill="#6C738C"/>
<path fill-rule="evenodd" clip-rule="evenodd" d="M5.90625 -0.00390625C2.64432 -0.00390625 0 2.56796 0 5.74051V13.3997C0 16.5723 2.64432 19.1442 5.90625 19.1442H13.7813C17.0432 19.1442 19.6875 16.5723 19.6875 13.3997V5.74051C19.6875 2.56796 17.0432 -0.00390625 13.7813 -0.00390625H5.90625ZM5.25 9.57012C5.25 7.10258 7.30669 5.10224 9.84375 5.10224C12.3808 5.10224 14.4375 7.10258 14.4375 9.57012C14.4375 12.0377 12.3808 14.038 9.84375 14.038C7.30669 14.038 5.25 12.0377 5.25 9.57012ZM14.4375 5.10224H15.75V3.82571H14.4375V5.10224Z" fill="#6C738C"/>
</svg>
