<svg width="20" height="20" viewBox="0 0 20 20" fill="none" xmlns="http://www.w3.org/2000/svg">
<path d="M10.0009 0.829346C15.0635 0.829346 19.1676 4.9334 19.1676 9.99601C19.1676 15.0586 15.0635 19.1627 10.0009 19.1627C8.31984 19.1627 6.74446 18.7102 5.38995 17.9203L0.83806 19.1627L2.07736 14.6082C1.28703 13.2535 0.834229 11.6776 0.834229 9.99601C0.834229 4.9334 4.93828 0.829346 10.0009 0.829346ZM6.69296 5.69531C6.57435 5.70365 6.45806 5.73261 6.35219 5.78678C6.27276 5.82742 6.19902 5.88615 6.08316 5.99555C5.97376 6.09885 5.91035 6.18907 5.84355 6.27605C5.50465 6.71728 5.32251 7.25889 5.32589 7.81524C5.32774 8.26498 5.44456 8.70205 5.62905 9.11015C6.00316 9.93771 6.62014 10.8126 7.43511 11.6239C7.63087 11.8188 7.82267 12.0158 8.02947 12.1978C9.04098 13.0885 10.2464 13.7307 11.5498 14.0735C11.5498 14.0735 12.0631 14.1524 12.0707 14.1528C12.2407 14.162 12.4105 14.1497 12.5807 14.141C12.8477 14.1272 13.1084 14.055 13.3444 13.9293C13.4961 13.8486 13.5678 13.8084 13.6952 13.7281C13.6952 13.7281 13.7342 13.7017 13.8096 13.6456C13.9333 13.5534 14.0098 13.4885 14.1127 13.3816C14.1886 13.3028 14.2539 13.2097 14.3043 13.1047C14.376 12.9551 14.4481 12.6696 14.4768 12.4324C14.4987 12.2513 14.4921 12.1523 14.4897 12.091C14.4858 11.9923 14.4043 11.8909 14.315 11.8478L13.782 11.6082C13.782 11.6082 12.9849 11.2613 12.4975 11.0389C12.4467 11.0157 12.3911 11.005 12.3353 11.0016C12.213 10.9941 12.076 11.026 11.9888 11.1178C11.9842 11.116 11.9235 11.1684 11.2603 11.9719C11.2237 12.0156 11.138 12.1107 10.9898 12.1018C10.9674 12.1002 10.9452 12.097 10.9234 12.0913C10.8634 12.0755 10.8049 12.0546 10.7477 12.0304C10.6343 11.9822 10.5945 11.964 10.5171 11.9306C9.9879 11.6995 9.50225 11.3902 9.07297 11.0117C8.95784 10.9103 8.85077 10.8011 8.7404 10.6941C8.35522 10.3208 8.03988 9.92369 7.80529 9.532C7.79248 9.51064 7.77274 9.47975 7.75149 9.44519C7.71311 9.38276 7.67077 9.30851 7.6575 9.25755C7.62343 9.1227 7.71382 9.01435 7.71382 9.01435C7.71382 9.01435 7.93694 8.77043 8.0406 8.63779C8.14034 8.5101 8.22643 8.38525 8.28125 8.29624C8.38923 8.12265 8.42342 7.94325 8.36668 7.80484C8.1095 7.17786 7.84416 6.55426 7.5707 5.93421C7.51673 5.81184 7.35619 5.72293 7.2102 5.70608C7.16076 5.70037 7.11135 5.69463 7.0617 5.69136C6.93882 5.68537 6.81568 5.68669 6.69296 5.69531Z" fill="#6C738C"/>
</svg>
