<svg width="70" height="79" viewBox="0 0 70 79" fill="none" xmlns="http://www.w3.org/2000/svg">
<path d="M31.1772 39.2515C31.1772 39.1612 31.1315 39.0257 31.1315 38.8902C31.0857 38.2127 31.1315 37.49 31.2688 36.8124C31.5893 35.1864 32.4133 33.8765 33.7868 32.9279C34.9771 32.1149 36.3048 31.6632 37.724 31.5277C39.6011 31.347 41.3865 31.618 43.0804 32.3859C45.0491 33.2441 46.6056 34.5992 47.6128 36.4962C48.3453 37.8513 48.7116 39.2967 48.7574 40.7873C48.8031 41.6003 48.8031 42.4133 48.62 43.2264C48.5742 43.4522 48.5285 43.6781 48.62 43.9491C48.7116 43.8587 48.7574 43.8136 48.7574 43.7684C49.0321 43.0909 49.3525 42.4133 49.5356 41.7358C49.9935 40.0646 49.9935 38.3933 49.6272 36.7221C49.1694 34.554 48.0249 32.7472 46.4225 31.2567C44.6828 29.6758 42.5769 28.7272 40.242 28.5014C38.2276 28.2755 36.3048 28.5014 34.4277 29.2241C32.688 29.8564 31.3146 30.9405 30.2616 32.4311C29.346 33.7861 28.8424 35.3219 28.5677 36.9028C28.3388 38.2578 28.4761 39.6129 28.9339 40.9228C29.5291 42.6392 30.6279 44.0394 32.1844 45.0331C34.1073 46.2978 36.1674 46.8399 38.4565 46.2978C39.7384 45.9817 40.7914 45.3041 41.5697 44.2653C42.0733 43.5877 42.3937 42.8199 42.6226 42.0068C42.9889 40.6969 42.8515 39.4322 42.119 38.303C40.5167 35.8639 37.3578 35.096 34.7482 36.2704C33.4205 36.8576 32.4591 37.8061 31.6351 38.9805C31.4977 39.0709 31.4977 39.2967 31.1772 39.2515ZM52.603 39.0709C52.603 46.343 46.5598 52.2601 39.0517 52.2601C31.5435 52.2601 25.5003 46.2978 25.5461 38.9805C25.5919 31.7535 31.5893 25.7913 39.1432 25.8364C46.6972 25.8364 52.603 31.889 52.603 39.0709Z" fill="#131E48"/>
<path d="M0.86985 71.8634C1.09876 71.8634 1.2361 71.9086 1.37345 71.9086C2.01439 71.9086 2.65533 71.9086 3.34205 71.9086C3.79987 71.9086 4.25769 71.9086 4.7155 71.9086C5.2191 71.9086 5.31066 71.6827 5.2191 71.231C4.99019 71.0052 4.7155 70.96 4.39503 70.96C3.38784 70.96 2.38064 70.96 1.37345 70.96C1.19032 70.96 1.05298 70.96 0.86985 71.0052V71.8634ZM5.2191 73.0829C4.99019 72.7668 4.7155 72.7216 4.44081 72.7216C3.38784 72.7216 2.33486 72.7216 1.28188 72.7216C1.14454 72.7216 1.00719 72.7668 0.86985 72.7668C0.824068 73.1733 0.824068 73.4895 0.915631 73.8056C0.961413 73.8056 1.05298 73.8508 1.09876 73.8508C2.28908 73.8508 3.4794 73.8508 4.66972 73.8508C4.94441 73.8508 5.08175 73.7605 5.26488 73.5346L5.2191 73.0829ZM0 74.709V70.147C0.137345 70.147 0.320471 70.1018 0.457816 70.1018C1.83126 70.1018 3.25049 70.1018 4.62394 70.1018C4.99019 70.1018 5.31066 70.1921 5.58535 70.3728C6.18051 70.7793 6.31786 71.4569 5.9516 72.0441C5.90582 72.1344 5.86004 72.2247 5.81426 72.3151C5.86004 72.4054 5.90582 72.4957 5.9516 72.5861C6.63833 73.7153 5.63113 74.709 4.76128 74.709C3.79987 74.709 2.79268 74.709 1.83126 74.709C1.19032 74.709 0.640942 74.709 0 74.709Z" fill="#131E48"/>
<path d="M33.8784 74.664H33.1001C33.0543 74.5285 33.0543 74.4381 33.0543 74.3478C33.0543 73.2637 33.0543 72.1797 33.0543 71.0956C33.0543 70.4181 33.6495 70.0116 34.3362 70.1019C34.794 70.1471 35.0229 70.4633 35.206 70.7795C35.4349 71.2311 35.6638 71.6828 35.847 72.1345C36.0759 72.6314 36.3048 73.0831 36.5795 73.6251C36.671 73.4896 36.7626 73.3992 36.8084 73.3089C37.2204 72.4959 37.6324 71.6377 38.0445 70.8246C38.2276 70.5085 38.4107 70.1923 38.8228 70.1019C39.3721 69.9664 40.0131 70.3278 40.1504 70.915C40.1962 71.0956 40.1962 71.3215 40.1962 71.5473C40.1962 72.4507 40.1962 73.3541 40.1962 74.2123C40.1962 74.3478 40.1962 74.4833 40.1504 74.664H39.3264C39.3264 74.4833 39.2806 74.3026 39.2806 74.1219C39.2806 73.2637 39.2806 72.4055 39.2806 71.5473C39.2806 71.3667 39.2806 71.186 39.2348 71.0053C38.9601 70.8698 38.8686 71.0053 38.8228 71.1408C38.6396 71.5473 38.4565 71.9538 38.2276 72.3604C37.9529 72.9476 37.6324 73.5348 37.3578 74.1219C37.0831 74.6188 36.8999 74.7543 36.2132 74.664C36.0759 74.4833 35.8927 74.3026 35.8012 74.0768C35.2976 73.1282 34.8398 72.1797 34.382 71.2763C34.3362 71.1408 34.2446 71.0505 34.153 70.9601C33.8326 71.0505 33.8784 71.2763 33.8784 71.457C33.8784 72.3604 33.8784 73.2637 33.8784 74.1671C33.8784 74.3026 33.8784 74.4381 33.8784 74.664Z" fill="#131E48"/>
<path d="M12.8646 71.999C12.7273 71.3666 12.361 71.0053 11.8116 70.9601C11.0334 70.9149 10.3008 70.9149 9.52256 70.9601C8.9274 71.0053 8.56115 71.4118 8.56115 71.999C8.88162 72.1345 12.4526 72.1345 12.8646 71.999ZM8.51537 73.0378V74.6639C8.1949 74.6639 7.96599 74.6639 7.6913 74.7091C7.64552 74.5284 7.64552 74.4381 7.64552 74.3026C7.64552 73.625 7.64552 72.9475 7.64552 72.27C7.59974 70.9149 8.69849 70.1019 9.84303 70.1471C10.4382 70.1471 11.0334 70.1471 11.6285 70.1471C12.9562 70.1471 13.7802 71.0053 13.7802 72.27C13.7802 73.0378 13.7802 73.8057 13.7802 74.6639C13.5056 74.6639 13.2309 74.7091 12.9562 74.7091C12.7731 74.1219 12.9562 73.5799 12.8646 73.0378C12.4526 72.9023 9.01896 72.9023 8.51537 73.0378Z" fill="#131E48"/>
<path d="M42.5768 72.0892H44.0876C44.5912 72.0892 45.049 72.0892 45.5526 72.0892C46.0105 72.0892 46.5141 72.1795 46.9719 72.044C46.8803 71.3665 46.5141 71.0051 45.8731 70.96C45.1406 70.9148 44.4081 70.9148 43.6756 70.96C43.0347 71.0051 42.6684 71.4116 42.5768 72.0892ZM46.9719 72.9474H42.5768V74.6638H41.707C41.707 73.6249 41.5696 72.6312 41.7528 71.6375C41.9359 70.7793 42.7142 70.1469 43.6298 70.1017C44.3623 70.0566 45.1406 70.0566 45.8731 70.1017C47.1092 70.1469 47.8875 71.231 47.7959 72.0892C47.7502 72.8119 47.7959 73.5346 47.7959 74.2573C47.7959 74.3476 47.7959 74.4831 47.7502 74.6186H46.9261V72.9474H46.9719Z" fill="#131E48"/>
<path d="M64.7809 72.0441C65.2845 72.1344 68.8097 72.0892 69.1302 71.9989C69.0386 71.4117 68.7181 71.0052 68.123 71.0052C67.3447 70.96 66.5664 70.96 65.7881 71.0052C65.1472 71.0052 64.7809 71.4569 64.7809 72.0441ZM69.9542 74.6638H69.1759V73.0378C68.7639 72.9023 65.6965 72.8571 64.7809 72.9474C64.6436 73.4895 64.8267 74.0315 64.6893 74.6638C64.4604 74.6638 64.1857 74.6638 63.9111 74.709C63.8653 74.5735 63.8653 74.438 63.8653 74.3477C63.8653 73.625 63.8653 72.9023 63.8653 72.1796C63.8195 70.8245 64.9183 70.1018 66.0628 70.1018C66.7037 70.1018 67.2989 70.1018 67.9398 70.1018C69.1759 70.1018 70.0458 70.96 70.0458 72.1796C70.0458 72.8571 70.0458 73.5798 70.0458 74.2573C70 74.3928 70 74.5283 69.9542 74.6638Z" fill="#131E48"/>
<path d="M15.1995 70.1921H15.7946C16.0235 70.418 15.932 70.6438 15.932 70.8697C15.9778 71.3214 16.0693 71.6827 16.4814 71.9085C16.6187 71.9989 16.8018 72.0441 16.985 72.0441C17.9006 72.0441 18.7704 72.0441 19.6861 72.0441C19.7318 72.0441 19.7776 72.0441 19.915 71.9989C19.915 71.4117 19.9608 70.8245 19.9608 70.1921C20.2354 70.1921 20.4644 70.147 20.739 70.147C20.739 70.3276 20.7848 70.4632 20.7848 70.5987C20.7848 71.3214 20.7848 72.0441 20.7848 72.8119C20.7848 73.8508 19.7776 74.7542 18.8162 74.709C17.8548 74.6638 16.8934 74.709 15.932 74.709C15.7946 74.709 15.6573 74.709 15.4742 74.6638C15.4742 74.438 15.4284 74.2122 15.4284 73.896C15.6573 73.896 15.8404 73.8508 15.9778 73.8508C16.8934 73.8508 17.8548 73.8508 18.7704 73.8508C19.274 73.8508 19.6403 73.5798 19.8692 73.1733C19.915 73.1281 19.8692 73.0378 19.915 72.9023C19.7318 72.9023 19.5487 72.9023 19.4114 72.9023C18.5873 72.9023 17.809 72.9023 17.0307 72.9023C15.6573 72.8571 14.7417 71.4569 15.1995 70.1921Z" fill="#131E48"/>
<path d="M56.9523 74.6187C56.8607 73.8508 56.9065 70.5083 56.998 70.147C57.0896 70.147 57.1812 70.1018 57.2727 70.1018C58.3715 70.1018 59.4245 70.1018 60.4774 70.1018C61.3015 70.1018 61.9424 70.4632 62.3087 71.231C62.3545 71.3665 62.446 71.502 62.446 71.6375C62.4918 72.6313 62.4918 73.625 62.5376 74.5735C62.2171 74.7542 61.9882 74.709 61.7135 74.6638C61.7135 74.4832 61.6678 74.3477 61.6678 74.2122C61.6678 73.5798 61.6678 72.9023 61.6678 72.2699C61.6678 71.4117 61.2099 70.96 60.3401 70.96C59.6076 70.96 58.9209 70.96 58.1884 70.96C58.051 70.96 57.9137 70.96 57.7305 71.0052C57.639 71.6375 57.7305 72.2247 57.6848 72.8119C57.6848 73.3991 57.6848 74.0315 57.6848 74.6187C57.5016 74.7542 57.2269 74.7542 56.9523 74.6187Z" fill="#131E48"/>
<path d="M29.5749 73.896V74.6638C29.3918 74.6638 29.3002 74.709 29.1171 74.709C28.0183 74.709 26.9195 74.709 25.775 74.709C24.722 74.709 23.898 73.9863 23.8064 72.9474C23.7606 72.0892 23.8064 71.231 23.8064 70.3728C23.8064 70.3277 23.8522 70.2825 23.898 70.147C24.0811 70.147 24.31 70.1018 24.5847 70.1018C24.6305 70.3276 24.6305 70.5083 24.6305 70.7342C24.6305 71.3665 24.6305 71.9989 24.6305 72.6313C24.5847 73.354 25.1341 73.896 25.9124 73.8508C26.9195 73.8056 27.9725 73.8508 28.9797 73.8508C29.2086 73.8508 29.346 73.896 29.5749 73.896Z" fill="#131E48"/>
<path d="M49.8561 74.6639H49.032C49.032 74.5284 48.9863 74.3929 48.9863 74.2574C48.9863 73.5347 48.9863 72.812 48.9863 72.0893C48.9863 71.0505 49.673 70.2374 50.6802 70.1471C51.8247 70.0567 53.015 70.1471 54.2054 70.1471C54.3885 70.3729 54.3427 70.6439 54.2511 70.9149C54.068 70.9149 53.9307 70.915 53.7933 70.9601C52.9235 70.9601 52.0536 70.9601 51.1838 70.9601C50.9549 70.9601 50.7717 70.9601 50.5428 71.0505C50.085 71.2311 49.8103 71.5473 49.8103 72.0893C49.8103 72.7669 49.8103 73.4444 49.8103 74.1219L49.8561 74.6639Z" fill="#131E48"/>
<path d="M22.0209 70.1921H22.6619C22.7992 70.5535 22.845 73.7605 22.7076 74.6638H21.9751C21.8836 74.2122 21.8836 70.5535 22.0209 70.1921Z" fill="#131E48"/>
<path d="M55.8077 74.6638H55.0752C54.9379 74.3025 54.9379 70.6438 55.0752 70.147C55.3041 70.147 55.533 70.147 55.8077 70.1018C55.8535 70.3277 55.8993 70.4632 55.8993 70.5987C55.8993 71.8634 55.8993 73.1281 55.8993 74.3477C55.8535 74.4832 55.8077 74.5283 55.8077 74.6638Z" fill="#131E48"/>
<path d="M50.7718 77.7804H52.8319C52.9235 77.69 52.9693 77.5545 53.0608 77.419C52.9693 77.2835 52.8777 77.1932 52.7861 77.1029H51.0464C50.7718 77.2835 50.6802 77.4642 50.7718 77.7804ZM53.2897 77.69C53.1066 78.0514 52.7861 78.1417 52.4657 78.1417C52.0536 78.1417 51.6416 78.1417 51.2296 78.1417C51.0922 78.1417 50.9091 78.1417 50.7718 78.1869C50.7718 78.5934 50.8175 78.6386 51.138 78.6386C51.6416 78.6386 52.0994 78.6386 52.603 78.6386C52.7404 78.6386 52.9235 78.6386 53.0608 78.6386C53.1524 78.8644 53.0608 78.9548 52.9235 78.9548C52.2825 78.9548 51.6416 78.9548 51.0464 78.9096C50.8633 78.9096 50.6802 78.7289 50.4513 78.5934C50.4513 78.1417 50.4513 77.7804 50.4513 77.419C50.4513 77.0577 50.6802 76.7867 51.0464 76.7867C51.6874 76.7415 52.3283 76.7867 52.9693 76.7867C53.0608 76.9222 53.1524 77.0125 53.2897 77.1932V77.69Z" fill="#131E48"/>
<path d="M39.189 77.8257C39.2806 77.6902 39.3264 77.5999 39.4179 77.4644C39.3264 77.3289 39.2348 77.2386 39.189 77.103H37.4493C37.1289 77.4192 37.1289 77.4192 37.2204 77.8257H39.189ZM36.8084 78.5484V77.2386C36.9915 76.8772 37.2662 76.7869 37.5867 76.7869C38.0445 76.7869 38.4565 76.7869 38.9143 76.7869C39.0517 76.7869 39.2348 76.7869 39.3264 76.8772C39.5553 77.0127 39.7384 77.1934 39.6926 77.5096C39.6926 77.7354 39.4637 78.0064 39.189 78.0968C39.0059 78.1419 38.777 78.1419 38.5939 78.1419C38.0903 78.1419 37.6324 78.1419 37.1288 78.1419C37.0373 78.5484 37.0831 78.5936 37.4493 78.6388C37.9529 78.6388 38.4565 78.6388 38.9601 78.6388C39.0975 78.6388 39.2806 78.6388 39.4179 78.6388C39.4637 78.8646 39.4179 78.955 39.2348 78.955C38.5939 78.955 37.9987 78.955 37.3578 78.955C37.1746 78.955 36.9457 78.8195 36.8084 78.5484Z" fill="#131E48"/>
<path d="M23.7148 77.1031H21.9294C21.7005 77.2838 21.5631 77.4644 21.7005 77.7806H23.7606C23.8522 77.6903 23.898 77.5548 23.9895 77.4193C23.8522 77.3289 23.7606 77.1934 23.7148 77.1031ZM24.0353 78.8647C23.9437 78.9098 23.8522 79.0002 23.7148 79.0002C23.1655 79.0002 22.6161 79.0002 22.0667 79.0002C21.7462 79.0002 21.5173 78.8647 21.3342 78.5033C21.3342 78.2323 21.3342 77.8258 21.3342 77.5096C21.3342 77.1934 21.6089 76.8773 21.9751 76.8321C22.5245 76.7869 23.0739 76.8321 23.6233 76.8321C23.898 76.8321 23.898 76.8773 24.2184 77.2386V77.6903C24.0353 78.0516 23.7148 78.142 23.3486 78.142C22.9366 78.142 22.5245 78.142 22.1125 78.142C21.9751 78.142 21.792 78.1871 21.5631 78.1871C21.6547 78.3678 21.7005 78.5033 21.7462 78.5937C22.5245 78.684 23.257 78.5485 23.9437 78.684C23.9895 78.7292 24.0353 78.7743 24.0353 78.8647Z" fill="#131E48"/>
<path d="M26.0039 78.7289C26.3702 78.5934 26.7364 78.6838 27.1027 78.6386C27.4689 78.6386 27.8352 78.6386 28.2014 78.6386C28.3846 78.3676 28.3846 78.3676 28.2014 78.0514C27.7894 78.0514 27.3316 78.0514 26.8738 78.0514C26.7364 78.0514 26.5991 78.0514 26.416 78.0514C26.0039 77.9611 25.8208 77.6901 25.8666 77.1932C25.9581 77.1029 26.0497 76.9674 26.1413 76.8319C26.8738 76.7415 27.6063 76.7867 28.3388 76.7867C28.3846 76.7867 28.4761 76.877 28.6135 76.9674C28.2014 77.1932 27.8352 77.0577 27.4689 77.1029C27.1027 77.1029 26.7364 77.1029 26.3702 77.1029C26.2786 77.1932 26.2328 77.3287 26.1413 77.419C26.2328 77.6901 26.4617 77.7352 26.6906 77.7352C27.0569 77.7352 27.4232 77.7352 27.8352 77.7352C28.0183 77.7352 28.2472 77.7804 28.3846 77.8707C28.6135 77.9611 28.7508 78.1869 28.705 78.4128C28.705 78.6838 28.5677 78.8644 28.293 78.9548C28.2014 78.9999 28.0641 78.9999 27.9725 78.9999C27.4232 78.9999 26.8738 78.9999 26.3702 78.9999C26.1413 78.9548 26.0039 78.9548 26.0039 78.7289Z" fill="#131E48"/>
<path d="M34.4277 77.103C34.1073 77.103 33.7868 77.103 33.5121 77.103C33.2374 77.103 32.9169 77.0578 32.5965 77.1482V78.5936H34.4735C35.0687 78.0967 35.0229 77.5999 34.4277 77.103ZM32.3676 78.9549C32.276 78.1871 32.276 77.5095 32.3676 76.7868C33.1001 76.7868 33.8326 76.6965 34.5651 76.832C34.7482 76.8772 34.9771 77.0578 35.1145 77.2837C35.4807 77.8709 35.2976 78.9097 34.382 78.9549C33.6952 79.0001 33.0543 78.9549 32.3676 78.9549Z" fill="#131E48"/>
<path d="M19.0909 77.103C18.3584 77.103 17.6259 77.0579 16.9392 77.103V77.7806C17.7175 77.7806 18.45 77.8257 19.1367 77.7806C19.3198 77.4644 19.3198 77.4644 19.0909 77.103ZM16.6187 76.7869C17.4885 76.7869 18.2668 76.7869 18.9993 76.7869C19.3656 76.7869 19.5487 77.103 19.6403 77.4192C19.6403 77.7806 19.3656 77.9613 19.1367 78.1419C19.1825 78.4129 19.5487 78.5936 19.5029 78.955C19.3656 78.9098 19.274 78.9098 19.2282 78.8646C19.1367 78.7743 18.9993 78.6388 18.9078 78.5033C18.7246 78.2323 18.4957 78.1419 18.2211 78.1871C17.809 78.1871 17.397 78.1871 16.9392 78.1871C16.8934 78.4581 16.8476 78.7291 16.8018 79.0001C16.756 79.0001 16.756 79.0001 16.7103 79.0001C16.6645 78.955 16.6187 78.8646 16.6187 78.8195C16.6187 78.1419 16.6187 77.5096 16.6187 76.7869Z" fill="#131E48"/>
<path d="M41.7528 77.0127C41.707 77.7354 41.6612 78.2774 41.5697 78.8646C41.5697 78.8646 41.5239 78.8646 41.4781 78.9098C41.295 78.8646 41.295 78.7291 41.295 78.5936C41.295 78.1871 41.295 77.7806 41.295 77.4192C41.295 77.103 41.4781 76.8772 41.8901 76.7869C42.0275 76.8772 42.2106 76.9675 42.3479 77.1482C42.76 77.5547 43.1262 78.0064 43.4925 78.4581C43.584 78.5484 43.6756 78.7291 43.9045 78.6839C44.0419 78.0968 43.8587 77.5096 43.9961 76.9224C44.225 76.8772 44.2708 76.9675 44.2708 77.103C44.2708 77.5547 44.2708 78.0516 44.2708 78.5484C44.2708 78.8195 44.0876 79.0001 43.7214 79.0905C43.584 79.0001 43.4009 78.8646 43.2636 78.6839C42.8515 78.2774 42.4853 77.8257 42.119 77.3741C42.0275 77.2386 41.9359 77.1482 41.7528 77.0127Z" fill="#131E48"/>
<path d="M48.8947 76.9224C48.4827 77.1934 48.1622 77.0579 47.7959 77.1031C47.4755 77.1031 47.1092 77.1031 46.7887 77.1031C46.1936 77.5096 46.1478 78.0968 46.6514 78.6388C47.3381 78.7292 48.0249 78.5937 48.7116 78.7292C48.7574 78.955 48.62 79.0002 48.4827 79.0002C47.9333 79.0002 47.3381 79.0454 46.7887 78.955C46.1936 78.9098 45.9189 78.4582 45.9647 77.7806C46.0105 77.2386 46.3309 76.8321 46.8803 76.8321C47.4297 76.7869 47.9791 76.8321 48.4827 76.8321C48.62 76.7869 48.7116 76.8321 48.8947 76.9224Z" fill="#131E48"/>
<path d="M55.6704 68.9275C55.7619 69.063 55.8535 69.1985 55.9451 69.2888C55.8993 69.605 55.7619 69.7857 55.4873 69.7857C55.2583 69.7857 55.121 69.6954 55.0294 69.5147C54.8921 69.2437 55.0294 69.1082 55.2583 68.9275H55.6704Z" fill="#131E48"/>
<path d="M30.3074 78.8646C30.2616 78.1871 30.2616 77.5096 30.3074 76.7417C30.4447 76.832 30.5821 76.9224 30.5821 76.9675C30.5821 77.5547 30.5821 78.1419 30.5821 78.7291C30.5821 78.7743 30.4905 78.8195 30.4447 78.9098C30.399 78.9098 30.3532 78.9098 30.3074 78.8646Z" fill="#131E48"/>
<path d="M41.7986 41.6004C41.707 41.3746 41.5697 41.1487 41.4781 40.9229C41.0661 40.0195 40.5625 39.1613 39.7842 38.4838C39.0975 37.8966 38.365 37.5804 37.4493 37.4901C36.3048 37.3997 35.206 37.6256 34.153 37.9869C33.9241 38.0773 33.6952 38.1676 33.4205 38.2579C33.329 38.3031 33.1916 38.3031 33.0543 38.2128C33.1459 38.1224 33.2374 37.9869 33.329 37.9418C34.3362 37.1287 35.4807 36.6319 36.7626 36.5415C38.8686 36.406 40.8372 37.4449 41.5697 39.5678C41.707 40.0195 41.7986 40.4712 41.9359 40.9229C41.9359 41.1487 42.0275 41.3746 41.7986 41.6004Z" fill="#131E48"/>
<path d="M47.7044 59.3517C47.3381 58.7645 46.8803 58.2225 46.5141 57.6353C46.0563 56.9126 45.69 56.0995 45.4611 55.2413C45.5527 55.1962 45.6442 55.1058 45.7816 55.0607C46.5141 54.8348 47.2008 54.6542 47.9333 54.4283C48.1164 54.3831 48.2538 54.2928 48.4369 54.2025C48.0706 53.2539 47.796 52.3054 47.2924 51.402C46.1478 52.0344 44.9575 52.6667 43.7214 53.0281C42.4395 53.4346 41.1118 53.6604 39.7842 53.7056C38.4565 53.7508 37.1288 53.6604 35.847 53.3894C34.5193 53.1184 33.2832 52.6667 32.0929 52.0344C30.9026 51.4472 29.8496 50.6793 28.8882 49.8211C27.881 48.9177 27.0569 47.924 26.3244 46.7948C25.6377 45.7108 25.0883 44.5364 24.722 43.2716C23.7149 39.884 23.8064 36.4963 25.3172 33.2442C27.7894 27.8691 32.1844 24.9783 38.2276 24.346C38.2276 24.1201 38.2734 23.9395 38.2734 23.804C38.2734 19.1967 38.2276 14.5895 38.2734 10.0275C38.2734 8.71762 38.136 7.36255 38.365 6.05266C38.1818 5.73648 37.8156 5.96233 37.5409 5.73648C37.5409 5.60098 37.4951 5.46547 37.5409 5.2848C37.5867 4.42659 37.4035 3.56839 37.724 2.66501C37.1746 2.43917 36.5795 2.66501 36.0759 2.48434C36.0301 2.07782 36.0301 1.71647 35.9843 1.30995C35.4807 1.26478 34.9771 1.26478 34.5193 1.21962C34.3362 0.767929 34.2904 0.40658 34.2446 6.16983e-05C33.3748 6.16983e-05 32.5507 -0.045107 31.6808 0.0452304C31.6351 0.451748 31.5893 0.813098 31.5435 1.12928C31.0857 1.40029 30.5821 1.17445 30.0785 1.30995C30.0327 1.6713 30.0327 2.07782 29.9869 2.43917C29.3918 2.57468 28.7966 2.394 28.1557 2.61984C28.5219 3.1167 28.3846 3.65872 28.3846 4.15558C28.3846 4.65243 28.3846 5.19446 28.3846 5.69131C28.0641 5.82682 27.6521 5.60098 27.5605 5.91716C27.6063 6.36884 27.6521 6.68502 27.6521 7.04637C27.6521 7.7239 27.6521 8.4466 27.6521 9.12413C27.6521 14.9961 27.6521 20.8228 27.6063 26.6947C27.6063 26.8302 27.6063 26.9658 27.6063 27.1013C27.5605 27.1013 27.5605 27.0561 27.5147 27.0561C27.1485 27.4174 26.7822 27.7788 26.3702 28.1853C26.0039 28.0046 25.5919 27.7788 25.0883 27.5529C24.5847 28.4563 24.0811 29.3145 23.5775 30.2179C22.7077 29.6759 21.8378 29.3145 21.1053 28.6822C20.3728 28.0498 19.6403 27.4174 18.862 26.8303C18.5873 26.6044 18.2668 26.3786 17.9006 26.2431C17.1681 25.9269 16.4356 25.972 15.7946 26.4689C15.1995 26.9658 14.879 27.5981 15.1079 28.366C15.1995 28.7725 15.3826 29.1339 15.6115 29.4952C15.8862 29.9469 16.2525 30.1727 16.7561 30.3082C17.809 30.5793 18.9078 30.8503 19.9608 31.1213C20.4644 31.2568 20.968 31.3471 21.4716 31.5278C21.8836 31.6633 22.2498 31.844 22.433 32.2957C22.3872 32.386 22.3414 32.4763 22.2956 32.5667C21.9752 33.1539 21.6547 33.7862 21.3342 34.3734C21.2426 34.5541 21.1511 34.7799 21.2426 35.0058C21.6089 35.1865 22.0209 35.3671 22.433 35.593C22.3872 35.9995 22.3872 36.3608 22.3414 36.7674C22.2041 37.5804 22.0209 38.4386 22.1125 39.2968C22.1125 39.4775 22.0667 39.613 22.0209 39.7937C21.4716 39.884 20.968 39.9743 20.6475 40.426C20.5559 40.7874 20.6017 41.1035 20.739 41.4197C20.8764 41.6907 21.0137 42.0069 21.1511 42.2779C21.2884 42.6393 21.4258 43.0006 21.1511 43.4072C20.7391 43.7233 20.2355 43.8137 19.6861 43.8588C18.5873 43.9492 17.4886 43.9943 16.4356 44.0847C15.7946 44.1298 15.1537 44.175 14.5585 44.446C12.8646 45.2139 12.9562 47.0206 14.0092 47.9692C14.4212 48.3305 14.879 48.5112 15.4284 48.3757C16.4356 48.0595 17.4428 47.653 18.3584 47.111C19.1367 46.6593 19.915 46.2076 20.739 45.7559C21.1511 45.5301 21.5631 45.3494 22.0667 45.4397C22.1125 45.5301 22.1583 45.6204 22.2041 45.7108C22.433 46.3883 22.6161 47.0658 22.845 47.7433C22.8908 47.8788 22.9823 47.9692 23.0739 48.1047C23.6233 47.924 24.1269 47.7885 24.6305 47.653C24.722 47.7433 24.8136 47.8337 24.8594 47.924C25.4088 48.8274 26.0497 49.5953 26.828 50.318C27.0569 50.5438 27.24 50.8148 27.3774 50.9955C27.3774 51.5827 26.7822 51.944 27.0111 52.4861C27.8352 52.9829 28.6593 53.3443 29.4375 53.8411C29.346 54.067 29.2544 54.2928 29.1629 54.5186C28.7508 55.422 28.0641 56.1447 27.4232 56.8674C26.828 57.5901 26.1871 58.2676 25.6377 59.0355C25.0883 59.7582 25.1799 60.4809 25.6377 61.2036C26.1413 61.9263 27.0569 62.4683 28.0183 62.107C28.3388 62.0166 28.6135 61.7908 28.8424 61.565C29.0255 61.3843 29.2086 61.1584 29.346 60.9326C29.8038 60.0292 30.0327 59.0807 30.3074 58.1321C30.4905 57.4998 30.5821 56.8674 30.7652 56.2351C30.9026 55.7382 31.1772 55.2413 31.6351 54.88C32.5507 55.2413 33.329 55.8285 34.2904 56.1899C34.5651 55.7382 34.8398 55.2865 35.1145 54.8348C35.7096 54.88 36.3048 54.88 36.8999 55.0155C37.6782 55.151 38.4107 55.1962 39.189 55.1058C39.3264 55.1058 39.4179 55.1058 39.6011 55.1058C39.7842 55.6027 39.9673 56.0995 40.1504 56.6416C41.1576 56.3254 42.119 56.0544 43.0804 55.7382C43.1262 55.8285 43.2178 55.9189 43.2636 56.0544C43.4467 56.6867 43.584 57.3643 43.7214 57.9966C43.9503 58.9452 43.9045 59.9389 43.9503 60.8874C43.9503 61.3843 44.0419 61.9263 44.225 62.378C44.5455 63.3265 45.69 63.8686 46.7888 63.6427C47.6586 63.462 48.3453 62.8297 48.2995 61.6553C48.4369 60.8423 48.1622 60.0744 47.7044 59.3517ZM29.1629 23.804H28.705V22.8554H29.1629V23.804ZM29.1629 21.0035H28.705V20.055H29.1629V21.0035ZM29.1629 18.1127H28.705V17.1642H29.1629V18.1127ZM29.1629 15.3122H28.705V14.3637H29.1629V15.3122ZM29.1629 12.5118H28.705V11.5632H29.1629V12.5118ZM29.1629 9.71132H28.705V8.76278H29.1629V9.71132ZM29.8954 23.804H29.4375V22.8554H29.8954V23.804ZM29.8954 22.6747H29.4375V21.681H29.8954V22.6747ZM29.8954 21.0035H29.4375V20.055H29.8954V21.0035ZM29.8954 19.8291H29.4375V18.8806H29.8954V19.8291ZM29.8954 18.1127H29.4375V17.1642H29.8954V18.1127ZM29.8954 16.9835H29.4375V16.0349H29.8954V16.9835ZM29.8954 15.3122H29.4375V14.3637H29.8954V15.3122ZM29.8954 14.183H29.4375V13.2345H29.8954V14.183ZM29.8954 12.5118H29.4375V11.5632H29.8954V12.5118ZM29.8954 11.3826H29.4375V10.3889H29.8954V11.3826ZM29.8954 9.71132H29.4375V8.76278H29.8954V9.71132ZM29.8954 8.58211H29.4375V7.63357H29.8954V8.58211ZM32.8254 23.804H32.3676V22.8554H32.8254V23.804ZM32.3676 22.6747V21.681H32.8254V22.6296H32.3676V22.6747ZM32.8254 21.0035H32.3676V20.055H32.8254V21.0035ZM32.3676 19.8291V18.8806H32.8254V19.8291H32.3676ZM32.8254 18.1127H32.3676V17.1642H32.8254V18.1127ZM32.3676 16.9835V16.0349H32.8254V16.9835H32.3676ZM32.8254 15.3122H32.3676V14.3637H32.8254V15.3122ZM32.3676 14.183V13.2345H32.8254V14.183H32.3676ZM32.8254 12.5118H32.3676V11.5632H32.8254V12.5118ZM32.3676 11.3826V10.3889H32.8254V11.3374H32.3676V11.3826ZM32.8254 9.71132H32.3676V8.76278H32.8254V9.71132ZM32.3676 8.58211V7.63357H32.8254V8.58211H32.3676ZM33.5579 23.804H33.1001V22.8554H33.5579V23.804ZM33.5579 22.6747H33.1001V21.681H33.5579V22.6747ZM33.5579 21.0035H33.1001V20.055H33.5579V21.0035ZM33.5579 19.8291H33.1001V18.8806H33.5579V19.8291ZM33.5579 18.1127H33.1001V17.1642H33.5579V18.1127ZM33.5579 16.9835H33.1001V16.0349H33.5579V16.9835ZM33.5579 15.3122H33.1001V14.3637H33.5579V15.3122ZM33.5579 14.183H33.1001V13.2345H33.5579V14.183ZM33.5579 12.5118H33.1001V11.5632H33.5579V12.5118ZM33.5579 11.3826H33.1001V10.3889H33.5579V11.3826ZM33.5579 9.71132H33.1001V8.76278H33.5579V9.71132ZM33.5579 8.58211H33.1001V7.63357H33.5579V8.58211ZM36.3963 23.804H35.9385V22.8554H36.3963V23.804ZM35.9385 22.6747V21.681H36.3963V22.6296H35.9385V22.6747ZM36.3963 21.0035H35.9385V20.055H36.3963V21.0035ZM35.9385 19.8291V18.8806H36.3963V19.8291H35.9385ZM36.3963 18.1127H35.9385V17.1642H36.3963V18.1127ZM35.9385 16.9835V16.0349H36.3963V16.9835H35.9385ZM36.3963 15.3122H35.9385V14.3637H36.3963V15.3122ZM35.9385 14.183V13.2345H36.3963V14.183H35.9385ZM36.3963 12.5118H35.9385V11.5632H36.3963V12.5118ZM35.9385 11.3826V10.3889H36.3963V11.3374H35.9385V11.3826ZM36.3963 9.71132H35.9385V8.76278H36.3963V9.71132ZM35.9385 8.58211V7.63357H36.3963V8.58211H35.9385ZM37.1288 23.804H36.671V22.8554H37.1288V23.804ZM37.1288 22.6747H36.671V21.681H37.1288V22.6747ZM37.1288 21.0035H36.671V20.055H37.1288V21.0035ZM37.1288 19.8291H36.671V18.8806H37.1288V19.8291ZM37.1288 18.1127H36.671V17.1642H37.1288V18.1127ZM37.1288 16.9835H36.671V16.0349H37.1288V16.9835ZM37.1288 15.3122H36.671V14.3637H37.1288V15.3122ZM37.1288 14.183H36.671V13.2345H37.1288V14.183ZM37.1288 12.5118H36.671V11.5632H37.1288V12.5118ZM37.1288 11.3826H36.671V10.3889H37.1288V11.3826ZM37.1288 9.71132H36.671V8.76278H37.1288V9.71132ZM37.1288 7.5884V8.58211H36.671V7.63357H37.1288V7.5884ZM34.9771 3.38771C35.6638 3.38771 36.259 3.34254 36.9457 3.38771V5.78165H35.0229C34.9313 4.96862 35.0229 4.20075 34.9771 3.38771ZM34.5651 7.31739H34.9313V24.1201H34.5651V7.31739ZM34.4735 3.38771C34.5651 3.70389 34.6109 5.2848 34.4735 5.78165H31.3604C31.2688 4.96862 31.3604 4.20075 31.3146 3.47805C31.7266 3.34254 33.6037 3.34254 34.4735 3.38771ZM31.2688 7.31739V24.1201H30.9026V7.31739H31.2688ZM28.9339 3.47805C29.3002 3.34254 30.3074 3.29737 30.811 3.43288C30.9026 3.79423 30.9483 5.2848 30.811 5.78165C30.2158 5.82682 29.5749 5.82682 28.8882 5.78165C28.8882 4.96862 28.9339 4.20075 28.9339 3.47805ZM28.705 7.5884H29.1629V8.58211H28.705V7.5884ZM28.705 10.3889H29.1629V11.3374H28.705V10.3889ZM28.705 13.1893H29.1629V14.1379H28.705V13.1893ZM28.705 16.0349H29.1629V16.9835H28.705V16.0349ZM28.705 18.8806H29.1629V19.8291H28.705V18.8806ZM28.705 21.681H29.1629V22.6296H28.705V21.681Z" fill="#131E48"/>
</svg>
