<svg width="103" height="117" viewBox="0 0 103 117" fill="none" xmlns="http://www.w3.org/2000/svg">
<path d="M45.8751 58.132C45.8751 57.9982 45.8077 57.7975 45.8077 57.5968C45.7403 56.5934 45.8077 55.5231 46.0098 54.5196C46.4813 52.1114 47.6939 50.1714 49.7148 48.7666C51.4663 47.5625 53.4199 46.8936 55.5082 46.6929C58.2701 46.4253 60.8973 46.8267 63.3898 47.9639C66.2864 49.2349 68.5768 51.2418 70.0588 54.0514C71.1367 56.0582 71.6756 58.1989 71.7429 60.4064C71.8103 61.6105 71.8103 62.8147 71.5409 64.0188C71.4735 64.3532 71.4061 64.6877 71.5409 65.0891C71.6756 64.9553 71.7429 64.8884 71.7429 64.8215C72.1471 63.8181 72.6187 62.8147 72.8881 61.8112C73.5618 59.3361 73.5618 56.861 73.0229 54.3858C72.3492 51.1749 70.6651 48.499 68.3074 46.2915C65.7475 43.9502 62.6488 42.5454 59.2132 42.2109C56.2492 41.8764 53.4199 42.2109 50.6579 43.2812C48.0981 44.2177 46.0771 45.8232 44.5278 48.0308C43.1805 50.0376 42.4395 52.3121 42.0353 54.6534C41.6985 56.6603 41.9006 58.6671 42.5742 60.6071C43.4499 63.1491 45.0667 65.2229 47.3571 66.6946C50.1864 68.5677 53.2178 69.3704 56.586 68.5677C58.4722 68.0994 60.0216 67.096 61.1668 65.5574C61.9078 64.5539 62.3793 63.4167 62.7161 62.2126C63.255 60.2726 63.053 58.3996 61.9751 56.7272C59.6174 53.1148 54.9692 51.9776 51.1295 53.7169C49.1759 54.5865 47.7613 55.9913 46.5487 57.7306C46.3466 57.8644 46.3466 58.1989 45.8751 58.132ZM77.4016 57.8644C77.4016 68.6346 68.5095 77.3978 57.4617 77.3978C46.414 77.3978 37.5219 68.5677 37.5892 57.7306C37.6566 47.0273 46.4813 38.1972 57.5964 38.264C68.7116 38.264 77.4016 47.228 77.4016 57.8644Z" fill="white"/>
<path d="M1.27992 106.431C1.61674 106.431 1.81884 106.498 2.02093 106.498C2.96403 106.498 3.90713 106.498 4.91759 106.498C5.59124 106.498 6.26488 106.498 6.93852 106.498C7.67953 106.498 7.81426 106.163 7.67953 105.494C7.34271 105.16 6.93852 105.093 6.46697 105.093C4.98496 105.093 3.50294 105.093 2.02093 105.093C1.75147 105.093 1.54938 105.093 1.27992 105.16V106.431ZM7.67953 108.237C7.34271 107.769 6.93852 107.702 6.53434 107.702C4.98496 107.702 3.43558 107.702 1.8862 107.702C1.68411 107.702 1.48201 107.769 1.27992 107.769C1.21256 108.371 1.21256 108.839 1.34729 109.307C1.41465 109.307 1.54938 109.374 1.61674 109.374C3.36822 109.374 5.11969 109.374 6.87116 109.374C7.27534 109.374 7.47744 109.24 7.74689 108.906L7.67953 108.237ZM0 110.645V103.889C0.202093 103.889 0.47155 103.822 0.673643 103.822C2.69457 103.822 4.78287 103.822 6.80379 103.822C7.34271 103.822 7.81426 103.956 8.21844 104.223C9.09418 104.825 9.29627 105.829 8.75736 106.698C8.68999 106.832 8.62263 106.966 8.55527 107.1C8.62263 107.233 8.68999 107.367 8.75736 107.501C9.76782 109.173 8.28581 110.645 7.00589 110.645C5.59124 110.645 4.10922 110.645 2.69457 110.645C1.75147 110.645 0.9431 110.645 0 110.645Z" fill="white"/>
<path d="M49.8496 110.578H48.7044C48.637 110.377 48.637 110.244 48.637 110.11C48.637 108.504 48.637 106.899 48.637 105.293C48.637 104.29 49.5128 103.688 50.5232 103.822C51.1969 103.889 51.5337 104.357 51.8031 104.825C52.14 105.494 52.4768 106.163 52.7463 106.832C53.0831 107.568 53.4199 108.237 53.8241 109.04C53.9588 108.839 54.0935 108.705 54.1609 108.571C54.7672 107.367 55.3735 106.096 55.9797 104.892C56.2492 104.424 56.5187 103.955 57.1249 103.822C57.9333 103.621 58.8764 104.156 59.0785 105.026C59.1459 105.293 59.1459 105.628 59.1459 105.962C59.1459 107.3 59.1459 108.638 59.1459 109.909C59.1459 110.11 59.1459 110.311 59.0785 110.578H57.8659C57.8659 110.311 57.7986 110.043 57.7986 109.775C57.7986 108.504 57.7986 107.233 57.7986 105.962C57.7986 105.695 57.7986 105.427 57.7312 105.16C57.327 104.959 57.1923 105.16 57.1249 105.36C56.8555 105.962 56.586 106.564 56.2492 107.166C55.845 108.036 55.3735 108.906 54.9693 109.775C54.5651 110.511 54.2956 110.712 53.2852 110.578C53.0831 110.311 52.8136 110.043 52.6789 109.708C51.9379 108.304 51.2642 106.899 50.5906 105.561C50.5232 105.36 50.3885 105.226 50.2538 105.093C49.7822 105.226 49.8496 105.561 49.8496 105.829C49.8496 107.166 49.8496 108.504 49.8496 109.842C49.8496 110.043 49.8496 110.244 49.8496 110.578Z" fill="white"/>
<path d="M18.9294 106.631C18.7273 105.695 18.1884 105.16 17.38 105.093C16.2348 105.026 15.157 105.026 14.0118 105.093C13.136 105.16 12.5971 105.762 12.5971 106.631C13.0687 106.832 18.3231 106.832 18.9294 106.631ZM12.5298 108.17V110.578C12.0582 110.578 11.7214 110.578 11.3172 110.645C11.2498 110.377 11.2498 110.244 11.2498 110.043C11.2498 109.04 11.2498 108.036 11.2498 107.033C11.1825 105.026 12.7992 103.822 14.4833 103.889C15.3591 103.889 16.2348 103.889 17.1105 103.889C19.0641 103.889 20.2767 105.16 20.2767 107.033C20.2767 108.17 20.2767 109.307 20.2767 110.578C19.8725 110.578 19.4683 110.645 19.0641 110.645C18.7946 109.775 19.0641 108.973 18.9294 108.17C18.3231 107.969 13.2708 107.969 12.5298 108.17Z" fill="white"/>
<path d="M62.6488 106.765H64.8718C65.6129 106.765 66.2865 106.765 67.0275 106.765C67.7011 106.765 68.4421 106.899 69.1158 106.698C68.9811 105.695 68.4421 105.16 67.499 105.093C66.4212 105.026 65.3434 105.026 64.2656 105.093C63.3225 105.16 62.7835 105.762 62.6488 106.765ZM69.1158 108.036H62.6488V110.578H61.3689C61.3689 109.039 61.1668 107.568 61.4363 106.096C61.7057 104.825 62.8509 103.889 64.1982 103.822C65.276 103.755 66.4212 103.755 67.499 103.822C69.3179 103.889 70.4631 105.494 70.3284 106.765C70.261 107.835 70.3284 108.906 70.3284 109.976C70.3284 110.11 70.3284 110.311 70.261 110.511H69.0484V108.036H69.1158Z" fill="white"/>
<path d="M95.3205 106.698C96.0615 106.832 101.249 106.765 101.72 106.631C101.585 105.762 101.114 105.16 100.238 105.16C99.0929 105.093 97.9477 105.093 96.8025 105.16C95.8594 105.16 95.3205 105.829 95.3205 106.698ZM102.933 110.578H101.787V108.17C101.181 107.969 96.6677 107.902 95.3205 108.036C95.1184 108.839 95.3878 109.642 95.1857 110.578C94.8489 110.578 94.4447 110.578 94.0405 110.645C93.9732 110.444 93.9732 110.244 93.9732 110.11C93.9732 109.04 93.9732 107.969 93.9732 106.899C93.9058 104.892 95.5225 103.822 97.2067 103.822C98.1498 103.822 99.0255 103.822 99.9686 103.822C101.787 103.822 103.067 105.093 103.067 106.899C103.067 107.902 103.067 108.973 103.067 109.976C103 110.177 103 110.378 102.933 110.578Z" fill="white"/>
<path d="M22.3649 103.956H23.2407C23.5775 104.29 23.4428 104.625 23.4428 104.959C23.5101 105.628 23.6449 106.163 24.2511 106.498C24.4532 106.631 24.7227 106.698 24.9921 106.698C26.3394 106.698 27.6193 106.698 28.9666 106.698C29.034 106.698 29.1014 106.698 29.3035 106.631C29.3035 105.762 29.3708 104.892 29.3708 103.956C29.775 103.956 30.1118 103.889 30.516 103.889C30.516 104.156 30.5834 104.357 30.5834 104.558C30.5834 105.628 30.5834 106.698 30.5834 107.835C30.5834 109.374 29.1014 110.712 27.6867 110.645C26.2721 110.578 24.8574 110.645 23.4428 110.645C23.2407 110.645 23.0386 110.645 22.7691 110.578C22.7691 110.244 22.7018 109.909 22.7018 109.441C23.0386 109.441 23.308 109.374 23.5101 109.374C24.8574 109.374 26.2721 109.374 27.6193 109.374C28.3604 109.374 28.8993 108.973 29.2361 108.371C29.3035 108.304 29.2361 108.17 29.3035 107.969C29.034 107.969 28.7645 107.969 28.5624 107.969C27.3499 107.969 26.2047 107.969 25.0595 107.969C23.0386 107.902 21.6913 105.829 22.3649 103.956Z" fill="white"/>
<path d="M83.8012 110.511C83.6664 109.374 83.7338 104.424 83.8685 103.889C84.0033 103.889 84.138 103.822 84.2727 103.822C85.8895 103.822 87.4388 103.822 88.9882 103.822C90.2008 103.822 91.1439 104.357 91.6828 105.494C91.7502 105.695 91.8849 105.896 91.8849 106.096C91.9522 107.568 91.9522 109.04 92.0196 110.444C91.5481 110.712 91.2112 110.645 90.807 110.578C90.807 110.311 90.7397 110.11 90.7397 109.909C90.7397 108.973 90.7397 107.969 90.7397 107.033C90.7397 105.762 90.066 105.093 88.7861 105.093C87.7083 105.093 86.6978 105.093 85.62 105.093C85.4179 105.093 85.2158 105.093 84.9464 105.16C84.8116 106.096 84.9464 106.966 84.879 107.835C84.879 108.705 84.879 109.642 84.879 110.511C84.6095 110.712 84.2053 110.712 83.8012 110.511Z" fill="white"/>
<path d="M43.5174 109.441V110.578C43.2479 110.578 43.1132 110.645 42.8437 110.645C41.227 110.645 39.6102 110.645 37.9261 110.645C36.3767 110.645 35.1642 109.575 35.0295 108.036C34.9621 106.765 35.0295 105.494 35.0295 104.223C35.0295 104.156 35.0968 104.089 35.1642 103.889C35.4336 103.889 35.7705 103.822 36.1746 103.822C36.242 104.156 36.242 104.424 36.242 104.758C36.242 105.695 36.242 106.631 36.242 107.568C36.1746 108.638 36.983 109.441 38.1282 109.374C39.6102 109.307 41.1596 109.374 42.6416 109.374C42.9784 109.374 43.1805 109.441 43.5174 109.441Z" fill="white"/>
<path d="M73.3597 110.578H72.1471C72.1471 110.377 72.0798 110.177 72.0798 109.976C72.0798 108.906 72.0798 107.835 72.0798 106.765C72.0798 105.226 73.0902 104.022 74.5722 103.889C76.2564 103.755 78.0078 103.889 79.7593 103.889C80.0288 104.223 79.9614 104.624 79.8267 105.026C79.5572 105.026 79.3551 105.026 79.153 105.093C77.8731 105.093 76.5932 105.093 75.3133 105.093C74.9764 105.093 74.707 105.093 74.3702 105.226C73.6965 105.494 73.2923 105.962 73.2923 106.765C73.2923 107.768 73.2923 108.772 73.2923 109.775L73.3597 110.578Z" fill="white"/>
<path d="M32.4022 103.956H33.3453C33.5474 104.491 33.6148 109.24 33.4127 110.578H32.3349C32.2001 109.909 32.2001 104.491 32.4022 103.956Z" fill="white"/>
<path d="M82.1171 110.578H81.0393C80.8372 110.043 80.8372 104.625 81.0393 103.889C81.3761 103.889 81.7129 103.889 82.1171 103.822C82.1845 104.156 82.2518 104.357 82.2518 104.558C82.2518 106.431 82.2518 108.304 82.2518 110.11C82.1845 110.311 82.1171 110.378 82.1171 110.578Z" fill="white"/>
<path d="M74.707 115.194H77.7384C77.8731 115.06 77.9405 114.86 78.0752 114.659C77.9405 114.458 77.8058 114.324 77.6711 114.191H75.1112C74.707 114.458 74.5723 114.726 74.707 115.194ZM78.4121 115.06C78.1426 115.595 77.6711 115.729 77.1995 115.729C76.5932 115.729 75.9869 115.729 75.3807 115.729C75.1786 115.729 74.9091 115.729 74.707 115.796C74.707 116.398 74.7744 116.465 75.2459 116.465C75.9869 116.465 76.6606 116.465 77.4016 116.465C77.6037 116.465 77.8731 116.465 78.0752 116.465C78.21 116.8 78.0752 116.933 77.8731 116.933C76.93 116.933 75.9869 116.933 75.1112 116.866C74.8418 116.866 74.5723 116.599 74.2355 116.398C74.2355 115.729 74.2355 115.194 74.2355 114.659C74.2355 114.124 74.5723 113.722 75.1112 113.722C76.0543 113.655 76.9974 113.722 77.9405 113.722C78.0752 113.923 78.21 114.057 78.4121 114.324V115.06Z" fill="white"/>
<path d="M57.6638 115.261C57.7986 115.06 57.8659 114.926 58.0007 114.726C57.8659 114.525 57.7312 114.391 57.6638 114.19H55.104C54.6324 114.659 54.6324 114.659 54.7672 115.261H57.6638ZM54.1609 116.331V114.391C54.4303 113.856 54.8345 113.722 55.3061 113.722C55.9797 113.722 56.586 113.722 57.2596 113.722C57.4617 113.722 57.7312 113.722 57.8659 113.856C58.2027 114.057 58.4722 114.324 58.4048 114.792C58.4048 115.127 58.068 115.528 57.6638 115.662C57.3944 115.729 57.0576 115.729 56.7881 115.729C56.0471 115.729 55.3734 115.729 54.6324 115.729C54.4977 116.331 54.5651 116.398 55.104 116.465C55.845 116.465 56.586 116.465 57.327 116.465C57.5291 116.465 57.7986 116.465 58.0007 116.465C58.068 116.799 58.0007 116.933 57.7312 116.933C56.7881 116.933 55.9124 116.933 54.9693 116.933C54.6998 116.933 54.363 116.732 54.1609 116.331Z" fill="white"/>
<path d="M34.8947 114.191H32.2675C31.9307 114.458 31.7286 114.726 31.9307 115.194H34.9621C35.0968 115.06 35.1642 114.86 35.2989 114.659C35.0968 114.525 34.9621 114.324 34.8947 114.191ZM35.3663 116.8C35.2315 116.866 35.0968 117 34.8947 117C34.0864 117 33.278 117 32.4696 117C31.9981 117 31.6612 116.8 31.3918 116.264C31.3918 115.863 31.3918 115.261 31.3918 114.793C31.3918 114.324 31.796 113.856 32.3349 113.789C33.1433 113.722 33.9516 113.789 34.76 113.789C35.1642 113.789 35.1642 113.856 35.6357 114.391V115.06C35.3663 115.595 34.8947 115.729 34.3558 115.729C33.7495 115.729 33.1433 115.729 32.537 115.729C32.3349 115.729 32.0654 115.796 31.7286 115.796C31.8633 116.064 31.9307 116.264 31.9981 116.398C33.1433 116.532 34.2211 116.331 35.2315 116.532C35.2989 116.599 35.3663 116.666 35.3663 116.8Z" fill="white"/>
<path d="M38.2629 116.599C38.8018 116.398 39.3407 116.532 39.8797 116.465C40.4186 116.465 40.9575 116.465 41.4964 116.465C41.7659 116.064 41.7659 116.064 41.4964 115.595C40.8901 115.595 40.2165 115.595 39.5428 115.595C39.3407 115.595 39.1387 115.595 38.8692 115.595C38.2629 115.462 37.9935 115.06 38.0608 114.324C38.1956 114.191 38.3303 113.99 38.465 113.789C39.5428 113.655 40.6207 113.722 41.6985 113.722C41.7659 113.722 41.9006 113.856 42.1027 113.99C41.4964 114.324 40.9575 114.124 40.4186 114.191C39.8797 114.191 39.3407 114.191 38.8018 114.191C38.6671 114.324 38.5997 114.525 38.465 114.659C38.5997 115.06 38.9366 115.127 39.2734 115.127C39.8123 115.127 40.3512 115.127 40.9575 115.127C41.2269 115.127 41.5638 115.194 41.7659 115.328C42.1027 115.462 42.3048 115.796 42.2374 116.131C42.2374 116.532 42.0353 116.799 41.6311 116.933C41.4964 117 41.2943 117 41.1596 117C40.3512 117 39.5428 117 38.8018 117C38.465 116.933 38.2629 116.933 38.2629 116.599Z" fill="white"/>
<path d="M50.658 114.19C50.1864 114.19 49.7149 114.19 49.3107 114.19C48.9065 114.19 48.4349 114.124 47.9634 114.257V116.398H50.7253C51.6011 115.662 51.5337 114.926 50.658 114.19ZM47.6266 116.933C47.4918 115.796 47.4918 114.792 47.6266 113.722C48.7044 113.722 49.7822 113.588 50.86 113.789C51.1295 113.856 51.4663 114.124 51.6684 114.458C52.2073 115.328 51.9379 116.866 50.5906 116.933C49.5801 117 48.637 116.933 47.6266 116.933Z" fill="white"/>
<path d="M28.0909 114.19C27.0131 114.19 25.9353 114.124 24.9248 114.19V115.194C26.07 115.194 27.1478 115.261 28.1583 115.194C28.4277 114.726 28.4277 114.726 28.0909 114.19ZM24.4532 113.722C25.7332 113.722 26.8784 113.722 27.9562 113.722C28.4951 113.722 28.7646 114.19 28.8993 114.659C28.8993 115.194 28.4951 115.461 28.1583 115.729C28.2256 116.13 28.7646 116.398 28.6972 116.933C28.4951 116.866 28.3604 116.866 28.293 116.799C28.1583 116.666 27.9562 116.465 27.8215 116.264C27.552 115.863 27.2152 115.729 26.811 115.796C26.2047 115.796 25.5984 115.796 24.9248 115.796C24.8574 116.197 24.7901 116.599 24.7227 117C24.6553 117 24.6553 117 24.588 117C24.5206 116.933 24.4532 116.799 24.4532 116.732C24.4532 115.729 24.4532 114.792 24.4532 113.722Z" fill="white"/>
<path d="M61.4362 114.057C61.3689 115.127 61.3015 115.93 61.1668 116.799C61.1668 116.799 61.0994 116.799 61.032 116.866C60.7626 116.799 60.7626 116.599 60.7626 116.398C60.7626 115.796 60.7626 115.194 60.7626 114.659C60.7626 114.19 61.032 113.856 61.6383 113.722C61.8404 113.856 62.1099 113.99 62.312 114.257C62.9182 114.859 63.4571 115.528 63.9961 116.197C64.1308 116.331 64.2655 116.599 64.6023 116.532C64.8044 115.662 64.535 114.792 64.7371 113.923C65.0739 113.856 65.1413 113.99 65.1413 114.19C65.1413 114.859 65.1413 115.595 65.1413 116.331C65.1413 116.732 64.8718 117 64.3329 117.134C64.1308 117 63.8613 116.799 63.6592 116.532C63.053 115.93 62.514 115.261 61.9751 114.592C61.8404 114.391 61.7057 114.257 61.4362 114.057Z" fill="white"/>
<path d="M71.9451 113.923C71.3388 114.324 70.8672 114.124 70.3283 114.191C69.8568 114.191 69.3178 114.191 68.8463 114.191C67.9706 114.793 67.9032 115.662 68.6442 116.465C69.6547 116.599 70.6651 116.398 71.6756 116.599C71.743 116.933 71.5409 117 71.3388 117C70.5304 117 69.6547 117.067 68.8463 116.933C67.9706 116.866 67.5664 116.197 67.6337 115.194C67.7011 114.391 68.1727 113.789 68.981 113.789C69.7894 113.722 70.5978 113.789 71.3388 113.789C71.5409 113.722 71.6756 113.789 71.9451 113.923Z" fill="white"/>
<path d="M81.915 102.083C82.0497 102.283 82.1844 102.484 82.3192 102.618C82.2518 103.086 82.0497 103.354 81.6455 103.354C81.3087 103.354 81.1066 103.22 80.9719 102.952C80.7698 102.551 80.9719 102.35 81.3087 102.083H81.915Z" fill="white"/>
<path d="M44.5951 116.799C44.5278 115.796 44.5278 114.792 44.5951 113.655C44.7972 113.789 44.9993 113.923 44.9993 113.99C44.9993 114.859 44.9993 115.729 44.9993 116.599C44.9993 116.666 44.8646 116.732 44.7972 116.866C44.7299 116.866 44.6625 116.866 44.5951 116.799Z" fill="white"/>
<path d="M61.5036 61.6107C61.3689 61.2763 61.1668 60.9418 61.0321 60.6073C60.4258 59.2694 59.6848 57.9984 58.5396 56.995C57.5291 56.1253 56.4513 55.6571 55.104 55.5233C53.4199 55.3895 51.8031 55.724 50.2538 56.2591C49.9169 56.3929 49.5801 56.5267 49.1759 56.6605C49.0412 56.7274 48.8391 56.7274 48.637 56.5936C48.7718 56.4598 48.9065 56.2591 49.0412 56.1922C50.5232 54.9881 52.2073 54.2523 54.0935 54.1185C57.1923 53.9178 60.089 55.4564 61.1668 58.6005C61.3689 59.2694 61.5036 59.9384 61.7057 60.6073C61.7057 60.9418 61.8404 61.2763 61.5036 61.6107Z" fill="white"/>
<path d="M70.1936 87.9006C69.6547 87.031 68.981 86.2283 68.4421 85.3586C67.7685 84.2883 67.2296 83.0842 66.8927 81.8132C67.0275 81.7463 67.1622 81.6125 67.3643 81.5456C68.4421 81.2111 69.4526 80.9435 70.5304 80.6091C70.7999 80.5422 71.002 80.4084 71.2714 80.2746C70.7325 78.8698 70.3283 77.465 69.5873 76.1271C67.9032 77.0636 66.1517 78.0001 64.3329 78.5353C62.4467 79.1374 60.4931 79.4718 58.5396 79.5387C56.586 79.6056 54.6324 79.4718 52.7462 79.0705C50.7927 78.6691 48.9738 78.0001 47.2224 77.0636C45.4709 76.194 43.9215 75.0567 42.5069 73.7857C41.0248 72.4478 39.8123 70.9761 38.7345 69.3037C37.724 67.6982 36.9156 65.959 36.3767 64.0859C34.8947 59.0687 35.0294 54.0516 37.2524 49.2351C40.8901 41.2746 47.3571 36.9933 56.2492 36.0567C56.2492 35.7223 56.3165 35.4547 56.3165 35.254C56.3165 28.4307 56.2492 21.6073 56.3165 14.8509C56.3165 12.9109 56.1144 10.9041 56.4513 8.9641C56.1818 8.49583 55.6429 8.83031 55.2387 8.49584C55.2387 8.29515 55.1713 8.09446 55.2387 7.82688C55.3061 6.55587 55.0366 5.28486 55.5082 3.94695C54.6998 3.61247 53.8241 3.94695 53.083 3.67937C53.0157 3.07731 53.0157 2.54215 52.9483 1.94009C52.2073 1.87319 51.4663 1.87319 50.7927 1.8063C50.5232 1.13734 50.4558 0.602181 50.3885 0.000122283C49.1086 0.000122283 47.896 -0.0667731 46.6161 0.0670177C46.5487 0.669076 46.4813 1.20424 46.414 1.67251C45.7403 2.07388 44.9993 1.7394 44.2583 1.94009C44.191 2.47525 44.191 3.07731 44.1236 3.61247C43.2479 3.81316 42.3721 3.54558 41.429 3.88005C41.9679 4.6159 41.7658 5.41865 41.7658 6.1545C41.7658 6.89035 41.7658 7.69309 41.7658 8.42894C41.2943 8.62963 40.688 8.29515 40.5533 8.76342C40.6207 9.43237 40.688 9.90064 40.688 10.4358C40.688 11.4392 40.688 12.5096 40.688 13.513C40.688 22.2094 40.688 30.8389 40.6207 39.5353C40.6207 39.736 40.6207 39.9367 40.6207 40.1373C40.5533 40.1373 40.5533 40.0705 40.4859 40.0705C39.947 40.6056 39.4081 41.1408 38.8018 41.7428C38.2629 41.4753 37.6566 41.1408 36.9156 40.8063C36.1746 42.1442 35.4336 43.4152 34.6926 44.7531C33.4127 43.9504 32.1328 43.4152 31.0549 42.4787C29.9771 41.5422 28.8993 40.6056 27.7541 39.736C27.3499 39.4015 26.8783 39.067 26.3394 38.8663C25.2616 38.3981 24.1838 38.465 23.2407 39.2008C22.3649 39.9367 21.8934 40.8732 22.2302 42.0104C22.3649 42.6125 22.6344 43.1476 22.9712 43.6828C23.3754 44.3518 23.9143 44.6862 24.6553 44.8869C26.2047 45.2883 27.8214 45.6897 29.3708 46.091C30.1118 46.2917 30.8528 46.4255 31.5938 46.6931C32.2001 46.8938 32.739 47.1614 33.0085 47.8303C32.9411 47.9641 32.8738 48.0979 32.8064 48.2317C32.3348 49.1013 31.8633 50.0379 31.3917 50.9075C31.257 51.1751 31.1223 51.5096 31.257 51.844C31.7959 52.1116 32.4022 52.3792 33.0085 52.7137C32.9411 53.3157 32.9411 53.8509 32.8738 54.453C32.6717 55.6571 32.4022 56.9281 32.5369 58.1991C32.5369 58.4667 32.4696 58.6674 32.4022 58.935C31.5938 59.0687 30.8528 59.2025 30.3813 59.8715C30.2466 60.4067 30.3139 60.8749 30.516 61.3432C30.7181 61.7446 30.9202 62.2128 31.1223 62.6142C31.3244 63.1494 31.5265 63.6845 31.1223 64.2866C30.516 64.7548 29.775 64.8886 28.9666 64.9555C27.3499 65.0893 25.7331 65.1562 24.1838 65.29C23.2407 65.3569 22.2976 65.4238 21.4218 65.8252C18.9294 66.9624 19.0641 69.6382 20.6135 71.043C21.2197 71.5782 21.8934 71.8458 22.7018 71.6451C24.1838 71.1768 25.6658 70.5747 27.0131 69.772C28.1583 69.1031 29.3035 68.4341 30.516 67.7651C31.1223 67.4307 31.7286 67.1631 32.4696 67.2969C32.5369 67.4307 32.6043 67.5645 32.6717 67.6982C33.0085 68.7017 33.2779 69.7051 33.6148 70.7085C33.6821 70.9092 33.8169 71.043 33.9516 71.2437C34.76 70.9761 35.501 70.7754 36.242 70.5747C36.3767 70.7085 36.5114 70.8423 36.5788 70.9761C37.3872 72.314 38.3303 73.4512 39.4755 74.5216C39.8123 74.856 40.0817 75.2574 40.2838 75.525C40.2838 76.3946 39.4081 76.9298 39.7449 77.7326C40.9575 78.4684 42.17 79.0036 43.3152 79.7394C43.1805 80.0739 43.0458 80.4084 42.911 80.7428C42.3048 82.0807 41.2943 83.1511 40.3512 84.2214C39.4755 85.2917 38.5324 86.2952 37.724 87.4324C36.9156 88.5027 37.0503 89.573 37.724 90.6434C38.465 91.7137 39.8123 92.5164 41.2269 91.9813C41.6985 91.8475 42.1027 91.513 42.4395 91.1785C42.7089 90.9109 42.9784 90.5765 43.1805 90.242C43.8541 88.9041 44.191 87.4993 44.5951 86.0945C44.8646 85.1579 44.9993 84.2214 45.2688 83.2849C45.4709 82.549 45.8751 81.8132 46.5487 81.278C47.896 81.8132 49.0412 82.6828 50.4558 83.218C50.86 82.549 51.2642 81.8801 51.6684 81.2111C52.5441 81.278 53.4199 81.278 54.2956 81.4787C55.4408 81.6794 56.5186 81.7463 57.6638 81.6125C57.8659 81.6125 58.0006 81.6125 58.2701 81.6125C58.5396 82.3483 58.809 83.0842 59.0785 83.8869C60.5605 83.4187 61.9751 83.0173 63.3898 82.549C63.4571 82.6828 63.5919 82.8166 63.6592 83.0173C63.9287 83.9538 64.1308 84.9572 64.3329 85.8938C64.6697 87.2986 64.6023 88.7703 64.6697 90.1751C64.6697 90.9109 64.8044 91.7137 65.0739 92.3826C65.5454 93.7874 67.2295 94.5902 68.8463 94.2557C70.1262 93.9881 71.1367 93.0516 71.0693 91.3123C71.2714 90.1082 70.8672 88.971 70.1936 87.9006ZM42.911 35.254H42.2374V33.8492H42.911V35.254ZM42.911 31.1065H42.2374V29.7017H42.911V31.1065ZM42.911 26.8252H42.2374V25.4204H42.911V26.8252ZM42.911 22.6777H42.2374V21.2729H42.911V22.6777ZM42.911 18.5301H42.2374V17.1253H42.911V18.5301ZM42.911 14.3826H42.2374V12.9778H42.911V14.3826ZM43.9889 35.254H43.3152V33.8492H43.9889V35.254ZM43.9889 33.5816H43.3152V32.1099H43.9889V33.5816ZM43.9889 31.1065H43.3152V29.7017H43.9889V31.1065ZM43.9889 29.3672H43.3152V27.9624H43.9889V29.3672ZM43.9889 26.8252H43.3152V25.4204H43.9889V26.8252ZM43.9889 25.1528H43.3152V23.748H43.9889V25.1528ZM43.9889 22.6777H43.3152V21.2729H43.9889V22.6777ZM43.9889 21.0053H43.3152V19.6005H43.9889V21.0053ZM43.9889 18.5301H43.3152V17.1253H43.9889V18.5301ZM43.9889 16.8578H43.3152V15.3861H43.9889V16.8578ZM43.9889 14.3826H43.3152V12.9778H43.9889V14.3826ZM43.9889 12.7102H43.3152V11.3054H43.9889V12.7102ZM48.3002 35.254H47.6265V33.8492H48.3002V35.254ZM47.6265 33.5816V32.1099H48.3002V33.5147H47.6265V33.5816ZM48.3002 31.1065H47.6265V29.7017H48.3002V31.1065ZM47.6265 29.3672V27.9624H48.3002V29.3672H47.6265ZM48.3002 26.8252H47.6265V25.4204H48.3002V26.8252ZM47.6265 25.1528V23.748H48.3002V25.1528H47.6265ZM48.3002 22.6777H47.6265V21.2729H48.3002V22.6777ZM47.6265 21.0053V19.6005H48.3002V21.0053H47.6265ZM48.3002 18.5301H47.6265V17.1253H48.3002V18.5301ZM47.6265 16.8578V15.3861H48.3002V16.7909H47.6265V16.8578ZM48.3002 14.3826H47.6265V12.9778H48.3002V14.3826ZM47.6265 12.7102V11.3054H48.3002V12.7102H47.6265ZM49.378 35.254H48.7044V33.8492H49.378V35.254ZM49.378 33.5816H48.7044V32.1099H49.378V33.5816ZM49.378 31.1065H48.7044V29.7017H49.378V31.1065ZM49.378 29.3672H48.7044V27.9624H49.378V29.3672ZM49.378 26.8252H48.7044V25.4204H49.378V26.8252ZM49.378 25.1528H48.7044V23.748H49.378V25.1528ZM49.378 22.6777H48.7044V21.2729H49.378V22.6777ZM49.378 21.0053H48.7044V19.6005H49.378V21.0053ZM49.378 18.5301H48.7044V17.1253H49.378V18.5301ZM49.378 16.8578H48.7044V15.3861H49.378V16.8578ZM49.378 14.3826H48.7044V12.9778H49.378V14.3826ZM49.378 12.7102H48.7044V11.3054H49.378V12.7102ZM53.5546 35.254H52.881V33.8492H53.5546V35.254ZM52.881 33.5816V32.1099H53.5546V33.5147H52.881V33.5816ZM53.5546 31.1065H52.881V29.7017H53.5546V31.1065ZM52.881 29.3672V27.9624H53.5546V29.3672H52.881ZM53.5546 26.8252H52.881V25.4204H53.5546V26.8252ZM52.881 25.1528V23.748H53.5546V25.1528H52.881ZM53.5546 22.6777H52.881V21.2729H53.5546V22.6777ZM52.881 21.0053V19.6005H53.5546V21.0053H52.881ZM53.5546 18.5301H52.881V17.1253H53.5546V18.5301ZM52.881 16.8578V15.3861H53.5546V16.7909H52.881V16.8578ZM53.5546 14.3826H52.881V12.9778H53.5546V14.3826ZM52.881 12.7102V11.3054H53.5546V12.7102H52.881ZM54.6324 35.254H53.9588V33.8492H54.6324V35.254ZM54.6324 33.5816H53.9588V32.1099H54.6324V33.5816ZM54.6324 31.1065H53.9588V29.7017H54.6324V31.1065ZM54.6324 29.3672H53.9588V27.9624H54.6324V29.3672ZM54.6324 26.8252H53.9588V25.4204H54.6324V26.8252ZM54.6324 25.1528H53.9588V23.748H54.6324V25.1528ZM54.6324 22.6777H53.9588V21.2729H54.6324V22.6777ZM54.6324 21.0053H53.9588V19.6005H54.6324V21.0053ZM54.6324 18.5301H53.9588V17.1253H54.6324V18.5301ZM54.6324 16.8578H53.9588V15.3861H54.6324V16.8578ZM54.6324 14.3826H53.9588V12.9778H54.6324V14.3826ZM54.6324 11.2385V12.7102H53.9588V11.3054H54.6324V11.2385ZM51.4663 5.01728C52.4768 5.01728 53.3525 4.95038 54.363 5.01728V8.56273H51.5337C51.3989 7.35861 51.5337 6.22139 51.4663 5.01728ZM50.86 10.8372H51.3989V35.7223H50.86V10.8372ZM50.7253 5.01728C50.86 5.48554 50.9274 7.82688 50.7253 8.56273H46.1445C46.0098 7.35861 46.1445 6.22139 46.0772 5.15107C46.6834 4.95038 49.4454 4.95038 50.7253 5.01728ZM46.0098 10.8372V35.7223H45.4709V10.8372H46.0098ZM42.5742 5.15107C43.1131 4.95038 44.5951 4.88348 45.3362 5.08417C45.4709 5.61933 45.5382 7.82688 45.3362 8.56273C44.4604 8.62963 43.5173 8.62963 42.5069 8.56273C42.5069 7.35861 42.5742 6.22139 42.5742 5.15107ZM42.2374 11.2385H42.911V12.7102H42.2374V11.2385ZM42.2374 15.3861H42.911V16.7909H42.2374V15.3861ZM42.2374 19.5336H42.911V20.9384H42.2374V19.5336ZM42.2374 23.748H42.911V25.1528H42.2374V23.748ZM42.2374 27.9624H42.911V29.3672H42.2374V27.9624ZM42.2374 32.1099H42.911V33.5147H42.2374V32.1099Z" fill="white"/>
</svg>
