<svg width="18" height="18" viewBox="0 0 18 18" fill="none" xmlns="http://www.w3.org/2000/svg">
<path d="M9.00083 0.666748C13.6032 0.666748 17.3342 4.39771 17.3342 9.00008C17.3342 13.6024 13.6032 17.3334 9.00083 17.3334C7.47258 17.3334 6.04042 16.9221 4.80905 16.204L0.670964 17.3334L1.7976 13.193C1.07911 11.9614 0.66748 10.5288 0.66748 9.00008C0.66748 4.39771 4.39844 0.666748 9.00083 0.666748ZM5.9936 5.09036C5.88577 5.09793 5.78006 5.12427 5.6838 5.17351C5.6116 5.21045 5.54456 5.26384 5.43924 5.3633C5.33978 5.45721 5.28214 5.53922 5.22141 5.6183C4.91332 6.01942 4.74774 6.51179 4.75081 7.01757C4.75249 7.42642 4.85869 7.82375 5.0264 8.19475C5.36651 8.94708 5.9274 9.74242 6.66828 10.48C6.84625 10.6572 7.02061 10.8362 7.20861 11.0017C8.12816 11.8114 9.224 12.3952 10.4089 12.7069C10.4089 12.7069 10.8756 12.7786 10.8824 12.779C11.037 12.7873 11.1913 12.7762 11.3461 12.7682C11.5888 12.7557 11.8258 12.6901 12.0403 12.5758C12.1782 12.5024 12.2435 12.4659 12.3592 12.3929C12.3592 12.3929 12.3947 12.3689 12.4632 12.3179C12.5757 12.2341 12.6452 12.1751 12.7388 12.0779C12.8078 12.0062 12.8672 11.9216 12.913 11.8262C12.9782 11.6902 13.0437 11.4306 13.0698 11.215C13.0897 11.0503 13.0837 10.9603 13.0816 10.9046C13.078 10.8149 13.0039 10.7227 12.9227 10.6835L12.4382 10.4657C12.4382 10.4657 11.7136 10.1503 11.2704 9.94816C11.2242 9.92708 11.1737 9.91733 11.123 9.91425C11.0118 9.90742 10.8872 9.93641 10.808 10.0199C10.8038 10.0182 10.7487 10.0659 10.1457 10.7963C10.1125 10.8361 10.0346 10.9225 9.89983 10.9144C9.8795 10.913 9.85925 10.9101 9.8395 10.9049C9.78491 10.8905 9.73175 10.8715 9.67975 10.8495C9.57666 10.8057 9.5405 10.7892 9.47008 10.7588C8.989 10.5487 8.5475 10.2675 8.15725 9.92342C8.05258 9.83125 7.95525 9.732 7.85491 9.63475C7.50475 9.29533 7.21807 8.93433 7.00481 8.57825C6.99316 8.55883 6.97522 8.53075 6.9559 8.49933C6.92101 8.44258 6.88252 8.37508 6.87045 8.32875C6.83948 8.20616 6.92166 8.10767 6.92166 8.10767C6.92166 8.10767 7.12449 7.88592 7.21873 7.76533C7.3094 7.64925 7.38766 7.53575 7.4375 7.45483C7.53566 7.29702 7.56675 7.13393 7.51516 7.00811C7.28136 6.43812 7.04015 5.87122 6.79155 5.30753C6.74248 5.19629 6.59654 5.11546 6.46382 5.10014C6.41887 5.09495 6.37395 5.08973 6.32882 5.08676C6.2171 5.08132 6.10516 5.08252 5.9936 5.09036Z" fill="#57ACA3"/>
</svg>
