<svg width="53" height="37" viewBox="0 0 53 37" fill="none" xmlns="http://www.w3.org/2000/svg">
<g clip-path="url(#clip0_1_495)">
<path d="M26.5 26.7185C25.8447 26.7185 25.1167 26.7185 24.4615 26.7185C23.6607 26.6457 23.0783 26.2089 23.2967 25.408C23.8791 23.588 22.7142 23.952 21.7678 24.0976C18.5645 24.68 15.3612 25.2624 12.1579 25.8449C8.73623 26.5001 5.31452 27.0825 1.89282 27.7377C1.01919 27.8833 0.218369 28.1017 -3.76832e-05 26.7913C-0.218444 25.4808 0.800786 25.7721 1.45601 25.6265C4.29529 24.9712 4.29529 24.9712 3.78568 22.0591C3.71287 21.6951 3.64007 21.2583 3.64007 20.8943C3.42167 18.8559 4.6593 17.1814 6.62496 16.6718C8.37222 16.235 10.3379 17.327 10.9203 19.2199C11.2843 20.3119 11.4299 21.4767 11.5755 22.5688C11.7211 23.3696 12.0851 23.588 12.8131 23.4424C15.6524 22.9328 18.5645 22.4232 21.4038 21.9135C22.059 21.7679 22.1318 21.4039 22.2046 20.8215C22.4958 18.8559 23.5879 17.5454 25.5535 17.1814C27.5192 16.7446 29.1936 17.4726 30.2129 19.2927C30.5769 19.9479 31.0137 20.1663 31.7417 20.0207C35.1634 19.3655 38.5851 18.783 42.0068 18.2006C42.8805 18.055 42.8805 17.4726 42.8077 16.8174C42.5892 15.6526 42.298 14.4877 42.1524 13.2501C41.934 11.066 43.3173 9.46437 45.3557 9.10036C47.2486 8.80915 48.9958 10.0468 49.5055 12.0852C49.7239 12.8861 49.8695 13.7597 49.9423 14.6333C50.0879 15.871 50.2335 16.963 51.9807 16.3078C52.8544 16.0166 52.7816 16.8902 52.9272 17.327C53.2184 18.2006 52.7088 18.3462 51.9807 18.4918C47.6854 19.2927 43.3901 20.0935 39.0219 20.8215C36.8379 21.1855 34.6538 21.6223 32.4697 21.9863C30.2857 22.4232 29.7033 23.0784 29.7033 25.4808C29.7033 26.2817 29.2664 26.5729 28.5384 26.6457C27.8104 26.7185 27.1552 26.7185 26.5 26.7185ZM44.1909 12.8133C44.4093 14.2693 44.6277 15.5798 44.9189 16.8174C45.0645 17.6182 45.7197 17.6182 46.2294 17.3998C46.8846 17.1086 48.1222 17.6182 48.1222 16.4534C48.0494 14.9973 47.6126 13.5413 47.2486 12.1581C47.0302 11.3572 46.2294 11.1388 45.4285 11.3572C44.5549 11.5756 44.2637 12.2309 44.1909 12.8133ZM5.75134 20.8215C5.96974 21.7679 6.18815 22.9328 6.40656 24.0976C6.47936 24.3888 6.62496 24.5344 6.98897 24.6072C8.88183 24.8256 9.60985 24.0248 9.24584 22.1319C9.10024 21.4767 9.02743 20.8215 8.88183 20.0935C8.66342 19.0743 8.0082 18.6374 6.98897 18.8559C6.04254 19.0015 5.67853 19.6567 5.75134 20.8215ZM26.136 23.4424C27.6648 23.5152 28.684 22.5688 28.6112 21.3311C28.5384 20.0935 27.8104 19.2927 26.5728 19.2199C25.4079 19.1471 24.3159 20.1663 24.3887 21.3311C24.4615 22.5688 25.1167 23.3696 26.136 23.4424Z" fill="#5DAFA6"/>
<path d="M5.16887 7.49854C7.57134 7.49854 9.537 9.537 9.4642 11.8667C9.3914 14.1235 7.35294 16.0892 5.09607 16.0164C2.7664 16.0164 0.80074 13.9051 0.873542 11.5755C0.873542 9.24579 2.7664 7.49854 5.16887 7.49854ZM7.13453 11.7939C7.06173 10.4834 6.40651 9.7554 5.16887 9.6098C3.93123 9.537 2.98481 10.4106 2.98481 11.6483C2.98481 12.8859 3.85843 13.8323 5.09607 13.7595C6.40651 13.7595 7.06173 13.0315 7.13453 11.7939Z" fill="#5DAFA6"/>
<path d="M43.6084 8.51786C41.206 8.51786 39.3131 6.5522 39.3131 4.14972C39.3131 1.82005 41.206 0 43.5356 0C45.9381 0 47.9038 1.96566 47.831 4.29533C47.831 6.625 45.8653 8.51786 43.6084 8.51786ZM43.6084 2.11126C42.3708 2.25687 41.57 2.91209 41.4972 4.14972C41.4244 5.31456 42.3708 6.33379 43.6084 6.33379C44.8461 6.33379 45.8653 5.38736 45.7197 4.14972C45.5741 2.91209 44.8461 2.25687 43.6084 2.11126Z" fill="#5EAFA6"/>
<path d="M26.4272 36.3283C25.0439 36.3283 23.6607 36.3283 22.3502 36.3283C21.6222 36.3283 21.0398 36.0371 21.0398 35.2363C21.0398 34.4354 21.5494 34.217 22.2774 34.217C25.0439 34.217 27.7376 34.217 30.5041 34.217C31.2321 34.217 31.8145 34.4354 31.8145 35.2363C31.8145 36.0371 31.2321 36.3283 30.5769 36.3283C29.1208 36.3283 27.8104 36.3283 26.4272 36.3283Z" fill="#5AADA4"/>
<path d="M26.3543 33.1978C25.6991 33.1978 24.9711 33.1978 24.3158 33.1978C23.5878 33.125 23.151 32.761 23.151 31.9601C23.151 31.3049 23.6606 30.9409 24.243 30.9409C25.6991 30.9409 27.0823 30.9409 28.5384 30.9409C29.1208 30.9409 29.6304 31.3049 29.6304 32.033C29.6304 32.6882 29.1208 33.0522 28.5384 33.125C27.8831 33.1978 27.1551 33.1978 26.3543 33.1978Z" fill="#67B4AB"/>
<path d="M26.3543 29.849C25.6263 29.849 24.8983 29.9218 24.0975 29.849C23.515 29.7762 23.151 29.4122 23.2238 28.8298C23.2238 28.2474 23.5878 27.8105 24.1703 27.8105C25.6991 27.8105 27.228 27.8105 28.7568 27.8105C29.3392 27.8105 29.7032 28.2474 29.7032 28.8298C29.7032 29.4122 29.3392 29.7762 28.7568 29.849C27.956 29.9218 27.1551 29.849 26.3543 29.849Z" fill="#5AADA4"/>
<path d="M13.3228 28.9026C13.1772 29.849 13.0316 31.0138 12.8132 32.1059C12.6676 32.6883 12.3036 33.1979 11.6484 33.1251C10.9203 33.0523 10.5563 32.5427 10.6291 31.8147C10.7747 30.7226 10.9931 29.7034 11.2116 28.6114C11.43 27.6649 12.2308 27.8106 12.886 27.8106C13.6868 27.7377 13.3228 28.393 13.3228 28.9026Z" fill="#61B0A8"/>
<path d="M44.0452 21.9862C44.6277 21.8406 44.9917 21.9862 45.2101 22.3502C45.7197 23.2239 46.2293 24.0975 46.7389 24.9711C47.0301 25.5535 47.0301 26.0631 46.4477 26.5C45.8653 26.864 45.2829 26.7184 44.9917 26.1359C44.3364 25.1167 43.6084 24.0247 43.0988 22.9326C42.4436 21.695 43.754 22.3502 44.0452 21.9862Z" fill="#62B1A8"/>
</g>
<defs>
<clipPath id="clip0_1_495">
<rect width="53" height="36.3283" fill="white"/>
</clipPath>
</defs>
</svg>
