<svg width="52" height="51" viewBox="0 0 52 51" fill="none" xmlns="http://www.w3.org/2000/svg">
<circle cx="25.9996" cy="25.5" r="24.65" stroke="#57ACA3" stroke-width="1.7"/>
<path d="M21.5147 35.2384C21.0541 35.2384 20.6947 35.1094 20.4368 34.8514C20.1972 34.5935 20.0774 34.2342 20.0774 33.7735V17.0238C20.0774 16.5447 20.2064 16.1853 20.4644 15.9458C20.7224 15.6878 21.0817 15.5588 21.5424 15.5588H28.1483C30.2489 15.5588 31.8704 16.084 33.0129 17.1343C34.1553 18.1662 34.7266 19.6219 34.7266 21.5014C34.7266 23.3993 34.1553 24.8735 33.0129 25.9238C31.8704 26.9557 30.2489 27.4716 28.1483 27.4716H22.952V33.7735C22.952 34.2342 22.8322 34.5935 22.5927 34.8514C22.3531 35.1094 21.9938 35.2384 21.5147 35.2384ZM22.952 25.1775H27.7337C29.1157 25.1775 30.1568 24.8735 30.857 24.2654C31.5756 23.6389 31.9349 22.7176 31.9349 21.5014C31.9349 20.3037 31.5756 19.4008 30.857 18.7927C30.1568 18.1662 29.1157 17.8529 27.7337 17.8529H22.952V25.1775Z" fill="#57ACA3"/>
</svg>
