<svg width="20" height="20" viewBox="0 0 20 20" fill="none" xmlns="http://www.w3.org/2000/svg">
<path d="M20 14.9111V18.8401C20 19.4234 19.549 19.9074 18.9672 19.9486C18.4812 19.9829 18.0848 20 17.7778 20C7.95933 20 0 12.0407 0 2.22222C0 1.91523 0.0171667 1.51874 0.0515 1.03278C0.0926333 0.450978 0.5766 0 1.15984 0H5.089C5.3742 0 5.61307 0.216022 5.6417 0.499778C5.66741 0.754522 5.69131 0.959044 5.71341 1.11336C5.93817 2.68302 6.39726 4.17707 7.05411 5.55892C7.15954 5.78072 7.09079 6.04621 6.89094 6.18896L4.49283 7.902C5.9528 11.3123 8.68767 14.0472 12.098 15.5072L13.8079 13.1132C13.9524 12.911 14.2211 12.8414 14.4456 12.948C15.8273 13.6043 17.3212 14.0629 18.8907 14.2871C19.044 14.3091 19.2472 14.3328 19.5002 14.3583C19.784 14.387 20 14.6259 20 14.9111Z" fill="#142949"/>
</svg>
