<svg width="28" height="28" viewBox="0 0 28 28" fill="none" xmlns="http://www.w3.org/2000/svg">
<path d="M14.3693 9.43824C11.8713 9.43824 9.8462 11.4633 9.8462 13.9613C9.8462 16.4593 11.8713 18.4844 14.3693 18.4844C16.8673 18.4844 18.8924 16.4593 18.8924 13.9613C18.8924 11.4633 16.8673 9.43824 14.3693 9.43824Z" fill="#142949"/>
<path fill-rule="evenodd" clip-rule="evenodd" d="M8.94159 0.39209C4.44514 0.39209 0.800049 4.03718 0.800049 8.53363V19.389C0.800049 23.8855 4.44514 27.5306 8.94159 27.5306H19.797C24.2934 27.5306 27.9385 23.8855 27.9385 19.389V8.53363C27.9385 4.03718 24.2934 0.39209 19.797 0.39209H8.94159ZM8.03697 13.9613C8.03697 10.4641 10.872 7.62901 14.3693 7.62901C17.8665 7.62901 20.7016 10.4641 20.7016 13.9613C20.7016 17.4586 17.8665 20.2936 14.3693 20.2936C10.872 20.2936 8.03697 17.4586 8.03697 13.9613ZM20.7016 7.62901H22.5108V5.81978H20.7016V7.62901Z" fill="#142949"/>
</svg>
